<svg xmlns="http://www.w3.org/2000/svg" xmlns:xlink="http://www.w3.org/1999/xlink" width="400" zoomAndPan="magnify" viewBox="0 0 300 67.499998" height="90" preserveAspectRatio="xMidYMid meet" version="1.0"><defs><g/></defs><g fill="#00b2a9" fill-opacity="1"><g transform="translate(0.00948289, 45.785842)"><g><path d="M 47.5625 -34.78125 L 47.875 -34.78125 C 47.96875 -34.78125 48.023438 -34.769531 48.046875 -34.75 C 48.078125 -34.738281 48.113281 -34.726562 48.15625 -34.71875 C 48.195312 -34.71875 48.234375 -34.695312 48.265625 -34.65625 C 48.347656 -34.59375 48.460938 -34.519531 48.609375 -34.4375 C 48.796875 -34.289062 48.890625 -34.117188 48.890625 -33.921875 C 48.890625 -33.734375 48.695312 -33.332031 48.3125 -32.71875 C 47.9375 -32.113281 46.960938 -30.597656 45.390625 -28.171875 C 41.742188 -22.597656 38.484375 -17.429688 35.609375 -12.671875 C 30.640625 -4.398438 28.128906 -0.238281 28.078125 -0.1875 C 28.035156 -0.144531 28.003906 -0.0976562 27.984375 -0.046875 C 27.960938 0.046875 27.894531 0.09375 27.78125 0.09375 L 27.453125 0.03125 L 26.796875 0.1875 L 26.40625 0.125 L 25.984375 0.1875 L 25.84375 0.1875 L 24.46875 0.390625 C 23.65625 0.390625 23.25 0.113281 23.25 -0.4375 C 23.25 -0.664062 23.320312 -0.953125 23.46875 -1.296875 C 23.976562 -2.484375 26.515625 -6.796875 31.078125 -14.234375 C 28.066406 -14.148438 25.101562 -14.109375 22.1875 -14.109375 L 16.9375 -14.140625 C 16.082031 -12.753906 14.90625 -10.796875 13.40625 -8.265625 C 10.175781 -2.734375 8.453125 0.0546875 8.234375 0.109375 C 8.023438 0.160156 7.851562 0.1875 7.71875 0.1875 C 7.59375 0.1875 7.472656 0.113281 7.359375 -0.03125 C 7.242188 -0.1875 7.164062 -0.265625 7.125 -0.265625 C 7.082031 -0.265625 6.992188 -0.234375 6.859375 -0.171875 C 6.734375 -0.109375 6.550781 -0.078125 6.3125 -0.078125 L 5.75 -0.09375 L 5.53125 -0.25 C 5.519531 -0.25 5.5 -0.222656 5.46875 -0.171875 C 5.445312 -0.117188 5.390625 -0.09375 5.296875 -0.09375 C 4.585938 -0.09375 4.234375 -0.382812 4.234375 -0.96875 C 4.234375 -1.363281 4.367188 -1.878906 4.640625 -2.515625 C 4.921875 -3.148438 5.285156 -3.835938 5.734375 -4.578125 C 6.179688 -5.328125 7.335938 -7.09375 9.203125 -9.875 C 11.066406 -12.664062 12 -14.070312 12 -14.09375 C 11.6875 -14.101562 11.328125 -14.117188 10.921875 -14.140625 C 10.085938 -14.140625 9.503906 -14.171875 9.171875 -14.234375 C 8.242188 -14.398438 7.609375 -15.164062 7.265625 -16.53125 C 7.085938 -17.195312 7.003906 -17.632812 7.015625 -17.84375 C 7.015625 -18.28125 7.203125 -18.5 7.578125 -18.5 L 8.21875 -18.328125 C 8.539062 -18.316406 9.316406 -18.273438 10.546875 -18.203125 C 11.785156 -18.140625 12.675781 -18.109375 13.21875 -18.109375 L 14.59375 -18.15625 C 16.707031 -21.46875 19.238281 -25.210938 22.1875 -29.390625 C 20.039062 -27.640625 17.660156 -26.765625 15.046875 -26.765625 C 13.804688 -26.765625 12.738281 -27.0625 11.84375 -27.65625 C 10.945312 -28.25 10.5 -29 10.5 -29.90625 C 10.5 -30.820312 10.835938 -31.539062 11.515625 -32.0625 C 12.203125 -32.59375 12.851562 -32.859375 13.46875 -32.859375 C 14.09375 -32.859375 14.40625 -32.757812 14.40625 -32.5625 C 14.40625 -32.5 14.316406 -32.425781 14.140625 -32.34375 C 13.972656 -32.257812 13.890625 -32.179688 13.890625 -32.109375 C 13.890625 -31.847656 14.171875 -31.613281 14.734375 -31.40625 C 15.304688 -31.207031 15.945312 -31.109375 16.65625 -31.109375 C 17.363281 -31.109375 18.238281 -31.3125 19.28125 -31.71875 C 20.320312 -32.132812 21.398438 -32.671875 22.515625 -33.328125 C 24.078125 -34.234375 25.316406 -34.988281 26.234375 -35.59375 C 26.753906 -35.851562 27.238281 -35.984375 27.6875 -35.984375 C 28.144531 -35.984375 28.472656 -35.925781 28.671875 -35.8125 C 28.878906 -35.707031 29.03125 -35.601562 29.125 -35.5 C 29.226562 -35.394531 29.332031 -35.253906 29.4375 -35.078125 C 29.550781 -34.910156 29.660156 -34.78125 29.765625 -34.6875 C 29.878906 -34.601562 29.9375 -34.503906 29.9375 -34.390625 C 29.9375 -34.273438 29.875 -34.097656 29.75 -33.859375 C 29.625 -33.617188 29 -32.628906 27.875 -30.890625 C 26.757812 -29.160156 25.320312 -26.953125 23.5625 -24.265625 C 21.800781 -21.578125 20.515625 -19.597656 19.703125 -18.328125 C 24.035156 -18.328125 28.722656 -18.410156 33.765625 -18.578125 C 39.890625 -28.242188 43.117188 -33.3125 43.453125 -33.78125 C 43.796875 -34.25 44.101562 -34.554688 44.375 -34.703125 C 44.65625 -34.859375 45 -34.9375 45.40625 -34.9375 Z M 47.5625 -34.78125 "/></g></g></g><g fill="#00b2a9" fill-opacity="1"><g transform="translate(37.446039, 45.785842)"><g><path d="M 17.375 -26.765625 C 17.375 -25.835938 16.941406 -24.90625 16.078125 -23.96875 C 15.222656 -23.039062 14.328125 -22.578125 13.390625 -22.578125 C 12.460938 -22.578125 12 -23.0625 12 -24.03125 C 12 -25.007812 12.40625 -25.941406 13.21875 -26.828125 C 14.039062 -27.710938 14.945312 -28.15625 15.9375 -28.15625 C 16.375 -28.15625 16.722656 -28.03125 16.984375 -27.78125 C 17.242188 -27.539062 17.375 -27.203125 17.375 -26.765625 Z M 13.4375 -5.484375 C 13.4375 -4.992188 13.382812 -4.644531 13.28125 -4.4375 C 12.488281 -2.8125 11.222656 -1.5 9.484375 -0.5 C 7.742188 0.5 6.226562 1 4.9375 1 C 3.65625 1 2.550781 0.570312 1.625 -0.28125 C 0.707031 -1.144531 0.25 -2.023438 0.25 -2.921875 C 0.25 -3.816406 0.691406 -5.117188 1.578125 -6.828125 C 2.472656 -8.535156 3.367188 -10.109375 4.265625 -11.546875 C 5.160156 -12.992188 5.609375 -13.78125 5.609375 -13.90625 C 5.609375 -14.03125 5.441406 -14.269531 5.109375 -14.625 C 4.773438 -14.976562 4.609375 -15.238281 4.609375 -15.40625 C 4.609375 -15.582031 4.941406 -16.03125 5.609375 -16.75 C 6.285156 -17.476562 7.109375 -18.195312 8.078125 -18.90625 C 9.046875 -19.613281 9.785156 -19.96875 10.296875 -19.96875 C 10.804688 -19.96875 11.265625 -19.738281 11.671875 -19.28125 C 12.078125 -18.820312 12.28125 -18.40625 12.28125 -18.03125 C 12.28125 -17.664062 10.347656 -14.148438 6.484375 -7.484375 C 6.429688 -7.390625 6.296875 -7.175781 6.078125 -6.84375 C 5.859375 -6.507812 5.6875 -6.226562 5.5625 -6 C 5.445312 -5.78125 5.304688 -5.519531 5.140625 -5.21875 C 4.816406 -4.5625 4.65625 -4.015625 4.65625 -3.578125 C 4.65625 -3.023438 5.023438 -2.75 5.765625 -2.75 C 6.515625 -2.75 7.289062 -3.003906 8.09375 -3.515625 C 8.90625 -4.035156 9.601562 -4.601562 10.1875 -5.21875 C 11.71875 -6.851562 12.585938 -7.671875 12.796875 -7.671875 C 13.222656 -7.671875 13.4375 -6.941406 13.4375 -5.484375 Z M 13.4375 -5.484375 "/></g></g></g><g fill="#00b2a9" fill-opacity="1"><g transform="translate(47.56074, 45.785842)"><g><path d="M 9.09375 -16.1875 C 10.664062 -17.269531 12.207031 -18.101562 13.71875 -18.6875 C 15.226562 -19.28125 16.535156 -19.578125 17.640625 -19.578125 C 18.753906 -19.578125 19.460938 -19.257812 19.765625 -18.625 C 20.398438 -19.351562 21.191406 -19.742188 22.140625 -19.796875 C 22.410156 -19.804688 22.75 -19.8125 23.15625 -19.8125 C 23.5625 -19.8125 23.8125 -19.757812 23.90625 -19.65625 C 24.007812 -19.550781 24.097656 -19.351562 24.171875 -19.0625 C 24.253906 -18.769531 24.300781 -18.609375 24.3125 -18.578125 C 24.332031 -18.546875 24.34375 -18.492188 24.34375 -18.421875 C 24.34375 -18.347656 24.300781 -18.253906 24.21875 -18.140625 C 24.144531 -18.035156 24.054688 -17.9375 23.953125 -17.84375 C 23.847656 -17.75 23.785156 -17.691406 23.765625 -17.671875 C 20.171875 -12.523438 16.5 -6.648438 12.75 -0.046875 C 16.613281 -3.472656 20.070312 -5.9375 23.125 -7.4375 C 23.320312 -7.53125 23.507812 -7.578125 23.6875 -7.578125 C 23.945312 -7.578125 24.117188 -7.410156 24.203125 -7.078125 C 24.285156 -6.742188 24.328125 -6.269531 24.328125 -5.65625 C 24.328125 -5.039062 24.289062 -4.660156 24.21875 -4.515625 C 24.144531 -4.367188 23.765625 -4.070312 23.078125 -3.625 C 22.398438 -3.1875 21.515625 -2.617188 20.421875 -1.921875 C 19.335938 -1.222656 18.1875 -0.453125 16.96875 0.390625 C 14.039062 2.421875 11.632812 4.554688 9.75 6.796875 C 7.3125 9.742188 5.566406 12.117188 4.515625 13.921875 C 4.117188 14.617188 3.457031 14.96875 2.53125 14.96875 C 0.695312 14.96875 -0.21875 14.097656 -0.21875 12.359375 C -0.21875 10.585938 0.648438 8.773438 2.390625 6.921875 C 3.691406 5.535156 4.882812 4.40625 5.96875 3.53125 C 7.0625 2.65625 7.65625 2.160156 7.75 2.046875 C 8.957031 0.242188 10.59375 -2.3125 12.65625 -5.625 C 10.894531 -3.789062 9.1875 -2.328125 7.53125 -1.234375 C 5.882812 -0.148438 4.65625 0.390625 3.84375 0.390625 C 1.363281 0.390625 0.125 -0.671875 0.125 -2.796875 C 0.125 -4.492188 0.550781 -6.203125 1.40625 -7.921875 C 2.269531 -9.640625 3.375 -11.175781 4.71875 -12.53125 C 6.070312 -13.894531 7.53125 -15.113281 9.09375 -16.1875 Z M 18.375 -16.8125 C 16.488281 -16.40625 14.71875 -15.734375 13.0625 -14.796875 C 11.40625 -13.867188 10.039062 -12.875 8.96875 -11.8125 C 7.894531 -10.75 6.96875 -9.65625 6.1875 -8.53125 C 4.726562 -6.4375 4 -4.8125 4 -3.65625 C 4 -3.375 4.066406 -3.234375 4.203125 -3.234375 C 4.335938 -3.234375 4.644531 -3.378906 5.125 -3.671875 C 5.601562 -3.972656 6.28125 -4.472656 7.15625 -5.171875 C 8.039062 -5.878906 9.019531 -6.722656 10.09375 -7.703125 C 12.582031 -9.992188 15.34375 -13.03125 18.375 -16.8125 Z M 18.375 -16.8125 "/></g></g></g><g fill="#00b2a9" fill-opacity="1"><g transform="translate(68.448199, 45.785842)"><g><path d="M 17.375 -26.765625 C 17.375 -25.835938 16.941406 -24.90625 16.078125 -23.96875 C 15.222656 -23.039062 14.328125 -22.578125 13.390625 -22.578125 C 12.460938 -22.578125 12 -23.0625 12 -24.03125 C 12 -25.007812 12.40625 -25.941406 13.21875 -26.828125 C 14.039062 -27.710938 14.945312 -28.15625 15.9375 -28.15625 C 16.375 -28.15625 16.722656 -28.03125 16.984375 -27.78125 C 17.242188 -27.539062 17.375 -27.203125 17.375 -26.765625 Z M 13.4375 -5.484375 C 13.4375 -4.992188 13.382812 -4.644531 13.28125 -4.4375 C 12.488281 -2.8125 11.222656 -1.5 9.484375 -0.5 C 7.742188 0.5 6.226562 1 4.9375 1 C 3.65625 1 2.550781 0.570312 1.625 -0.28125 C 0.707031 -1.144531 0.25 -2.023438 0.25 -2.921875 C 0.25 -3.816406 0.691406 -5.117188 1.578125 -6.828125 C 2.472656 -8.535156 3.367188 -10.109375 4.265625 -11.546875 C 5.160156 -12.992188 5.609375 -13.78125 5.609375 -13.90625 C 5.609375 -14.03125 5.441406 -14.269531 5.109375 -14.625 C 4.773438 -14.976562 4.609375 -15.238281 4.609375 -15.40625 C 4.609375 -15.582031 4.941406 -16.03125 5.609375 -16.75 C 6.285156 -17.476562 7.109375 -18.195312 8.078125 -18.90625 C 9.046875 -19.613281 9.785156 -19.96875 10.296875 -19.96875 C 10.804688 -19.96875 11.265625 -19.738281 11.671875 -19.28125 C 12.078125 -18.820312 12.28125 -18.40625 12.28125 -18.03125 C 12.28125 -17.664062 10.347656 -14.148438 6.484375 -7.484375 C 6.429688 -7.390625 6.296875 -7.175781 6.078125 -6.84375 C 5.859375 -6.507812 5.6875 -6.226562 5.5625 -6 C 5.445312 -5.78125 5.304688 -5.519531 5.140625 -5.21875 C 4.816406 -4.5625 4.65625 -4.015625 4.65625 -3.578125 C 4.65625 -3.023438 5.023438 -2.75 5.765625 -2.75 C 6.515625 -2.75 7.289062 -3.003906 8.09375 -3.515625 C 8.90625 -4.035156 9.601562 -4.601562 10.1875 -5.21875 C 11.71875 -6.851562 12.585938 -7.671875 12.796875 -7.671875 C 13.222656 -7.671875 13.4375 -6.941406 13.4375 -5.484375 Z M 13.4375 -5.484375 "/></g></g></g><g fill="#00b2a9" fill-opacity="1"><g transform="translate(78.5629, 45.785842)"><g><path d="M 18.28125 -18.234375 C 18.28125 -17.160156 17.84375 -16.21875 16.96875 -15.40625 C 16.101562 -14.59375 15.117188 -14.1875 14.015625 -14.1875 C 13.660156 -14.1875 13.425781 -14.269531 13.3125 -14.4375 C 13.195312 -14.613281 13.140625 -14.835938 13.140625 -15.109375 C 13.140625 -15.390625 13.171875 -15.660156 13.234375 -15.921875 C 12.648438 -15.722656 12 -15.421875 11.28125 -15.015625 C 10.570312 -14.609375 9.695312 -14.003906 8.65625 -13.203125 C 7.613281 -12.410156 7.09375 -11.820312 7.09375 -11.4375 C 7.09375 -11.300781 7.28125 -11.234375 7.65625 -11.234375 C 8.039062 -11.234375 8.628906 -11.367188 9.421875 -11.640625 C 10.222656 -11.910156 10.78125 -12.046875 11.09375 -12.046875 C 11.414062 -12.046875 11.625 -12.03125 11.71875 -12 C 11.9375 -11.882812 12.164062 -11.632812 12.40625 -11.25 C 12.644531 -10.863281 12.765625 -10.5625 12.765625 -10.34375 C 12.765625 -10.125 12.550781 -9.835938 12.125 -9.484375 C 11.707031 -9.128906 11.226562 -8.859375 10.6875 -8.671875 C 10.15625 -8.484375 9.800781 -8.335938 9.625 -8.234375 C 6.195312 -6.316406 4.484375 -5.003906 4.484375 -4.296875 C 4.484375 -3.023438 5.566406 -2.390625 7.734375 -2.390625 C 9.109375 -2.390625 10.492188 -2.828125 11.890625 -3.703125 C 13.078125 -4.453125 14.144531 -5.210938 15.09375 -5.984375 C 16.050781 -6.753906 16.65625 -7.226562 16.90625 -7.40625 C 17.15625 -7.582031 17.347656 -7.671875 17.484375 -7.671875 C 17.898438 -7.671875 18.109375 -7.195312 18.109375 -6.25 C 18.109375 -5.3125 18.050781 -4.691406 17.9375 -4.390625 C 17.820312 -4.097656 17.5 -3.734375 16.96875 -3.296875 C 13.488281 -0.460938 10.195312 0.953125 7.09375 0.953125 C 5.4375 0.953125 4.113281 0.722656 3.125 0.265625 C 1.300781 -0.554688 0.390625 -1.820312 0.390625 -3.53125 C 0.390625 -5.769531 1.941406 -7.46875 5.046875 -8.625 C 4.429688 -8.90625 4.03125 -9.257812 3.84375 -9.6875 C 3.664062 -10.113281 3.578125 -10.800781 3.578125 -11.75 C 3.578125 -12.707031 4.019531 -13.71875 4.90625 -14.78125 C 5.789062 -15.84375 6.878906 -16.71875 8.171875 -17.40625 C 11.023438 -18.945312 13.570312 -19.71875 15.8125 -19.71875 C 16.351562 -19.71875 16.898438 -19.585938 17.453125 -19.328125 C 18.003906 -19.066406 18.28125 -18.703125 18.28125 -18.234375 Z M 18.28125 -18.234375 "/></g></g></g><g fill="#00b2a9" fill-opacity="1"><g transform="translate(94.405193, 45.785842)"><g><path d="M 14.234375 -3.75 C 14.234375 -3.039062 14.722656 -2.6875 15.703125 -2.6875 C 16.222656 -2.6875 16.875 -2.941406 17.65625 -3.453125 C 18.445312 -3.972656 19.160156 -4.546875 19.796875 -5.171875 C 21.484375 -6.835938 22.441406 -7.671875 22.671875 -7.671875 C 23.085938 -7.671875 23.296875 -7.0625 23.296875 -5.84375 C 23.296875 -4.625 22.914062 -3.789062 22.15625 -3.34375 C 19.832031 -1.238281 18.035156 0.0351562 16.765625 0.484375 C 16.054688 0.734375 15.269531 0.847656 14.40625 0.828125 C 13.539062 0.804688 12.6875 0.429688 11.84375 -0.296875 C 11 -1.023438 10.578125 -1.910156 10.578125 -2.953125 C 10.578125 -4.003906 10.851562 -5.195312 11.40625 -6.53125 C 11.957031 -7.863281 12.519531 -9.003906 13.09375 -9.953125 C 13.675781 -10.910156 14.390625 -12.015625 15.234375 -13.265625 C 16.078125 -14.523438 16.523438 -15.3125 16.578125 -15.625 L 16.53125 -15.671875 C 15.988281 -15.617188 14.65625 -14.5625 12.53125 -12.5 C 10.414062 -10.4375 8.664062 -8.640625 7.28125 -7.109375 C 5.90625 -5.585938 4.257812 -3.550781 2.34375 -1 C 1.800781 -0.300781 1.359375 0.046875 1.015625 0.046875 C 0.679688 0.046875 0.226562 -0.0625 -0.34375 -0.28125 C -0.925781 -0.5 -1.28125 -0.65625 -1.40625 -0.75 C -1.539062 -0.851562 -1.609375 -1 -1.609375 -1.1875 C -1.609375 -1.382812 -1.550781 -1.625 -1.4375 -1.90625 C -1.320312 -2.195312 -1.210938 -2.4375 -1.109375 -2.625 C -1.003906 -2.8125 -0.828125 -3.097656 -0.578125 -3.484375 C -0.335938 -3.878906 0.140625 -4.703125 0.859375 -5.953125 C 1.585938 -7.210938 2.695312 -9.09375 4.1875 -11.59375 C 5.6875 -14.101562 6.582031 -15.617188 6.875 -16.140625 C 7.488281 -17.210938 7.992188 -17.992188 8.390625 -18.484375 C 9.117188 -19.398438 10.351562 -19.859375 12.09375 -19.859375 C 12.476562 -19.859375 12.671875 -19.617188 12.671875 -19.140625 C 12.671875 -18.367188 11.96875 -16.929688 10.5625 -14.828125 L 9.53125 -13.28125 C 12.34375 -16.40625 14.71875 -18.378906 16.65625 -19.203125 C 17.59375 -19.609375 18.4375 -19.8125 19.1875 -19.8125 C 19.945312 -19.8125 20.550781 -19.609375 21 -19.203125 C 21.445312 -18.796875 21.671875 -18.34375 21.671875 -17.84375 C 21.671875 -17.351562 21.5 -16.765625 21.15625 -16.078125 C 20.8125 -15.390625 20.460938 -14.769531 20.109375 -14.21875 C 19.765625 -13.675781 19.304688 -12.988281 18.734375 -12.15625 C 18.171875 -11.332031 17.863281 -10.882812 17.8125 -10.8125 C 17.769531 -10.738281 17.644531 -10.539062 17.4375 -10.21875 C 17.238281 -9.90625 17.085938 -9.675781 16.984375 -9.53125 C 16.890625 -9.382812 16.726562 -9.128906 16.5 -8.765625 C 16.269531 -8.398438 16.085938 -8.09375 15.953125 -7.84375 C 15.816406 -7.601562 15.644531 -7.300781 15.4375 -6.9375 C 15.238281 -6.582031 15.078125 -6.273438 14.953125 -6.015625 C 14.828125 -5.753906 14.703125 -5.472656 14.578125 -5.171875 C 14.347656 -4.597656 14.234375 -4.125 14.234375 -3.75 Z M 14.234375 -3.75 "/></g></g></g><g fill="#00b2a9" fill-opacity="1"><g transform="translate(113.9034, 45.785842)"><g><path d="M 18.28125 -18.234375 C 18.28125 -17.160156 17.84375 -16.21875 16.96875 -15.40625 C 16.101562 -14.59375 15.117188 -14.1875 14.015625 -14.1875 C 13.660156 -14.1875 13.425781 -14.269531 13.3125 -14.4375 C 13.195312 -14.613281 13.140625 -14.835938 13.140625 -15.109375 C 13.140625 -15.390625 13.171875 -15.660156 13.234375 -15.921875 C 12.648438 -15.722656 12 -15.421875 11.28125 -15.015625 C 10.570312 -14.609375 9.695312 -14.003906 8.65625 -13.203125 C 7.613281 -12.410156 7.09375 -11.820312 7.09375 -11.4375 C 7.09375 -11.300781 7.28125 -11.234375 7.65625 -11.234375 C 8.039062 -11.234375 8.628906 -11.367188 9.421875 -11.640625 C 10.222656 -11.910156 10.78125 -12.046875 11.09375 -12.046875 C 11.414062 -12.046875 11.625 -12.03125 11.71875 -12 C 11.9375 -11.882812 12.164062 -11.632812 12.40625 -11.25 C 12.644531 -10.863281 12.765625 -10.5625 12.765625 -10.34375 C 12.765625 -10.125 12.550781 -9.835938 12.125 -9.484375 C 11.707031 -9.128906 11.226562 -8.859375 10.6875 -8.671875 C 10.15625 -8.484375 9.800781 -8.335938 9.625 -8.234375 C 6.195312 -6.316406 4.484375 -5.003906 4.484375 -4.296875 C 4.484375 -3.023438 5.566406 -2.390625 7.734375 -2.390625 C 9.109375 -2.390625 10.492188 -2.828125 11.890625 -3.703125 C 13.078125 -4.453125 14.144531 -5.210938 15.09375 -5.984375 C 16.050781 -6.753906 16.65625 -7.226562 16.90625 -7.40625 C 17.15625 -7.582031 17.347656 -7.671875 17.484375 -7.671875 C 17.898438 -7.671875 18.109375 -7.195312 18.109375 -6.25 C 18.109375 -5.3125 18.050781 -4.691406 17.9375 -4.390625 C 17.820312 -4.097656 17.5 -3.734375 16.96875 -3.296875 C 13.488281 -0.460938 10.195312 0.953125 7.09375 0.953125 C 5.4375 0.953125 4.113281 0.722656 3.125 0.265625 C 1.300781 -0.554688 0.390625 -1.820312 0.390625 -3.53125 C 0.390625 -5.769531 1.941406 -7.46875 5.046875 -8.625 C 4.429688 -8.90625 4.03125 -9.257812 3.84375 -9.6875 C 3.664062 -10.113281 3.578125 -10.800781 3.578125 -11.75 C 3.578125 -12.707031 4.019531 -13.71875 4.90625 -14.78125 C 5.789062 -15.84375 6.878906 -16.71875 8.171875 -17.40625 C 11.023438 -18.945312 13.570312 -19.71875 15.8125 -19.71875 C 16.351562 -19.71875 16.898438 -19.585938 17.453125 -19.328125 C 18.003906 -19.066406 18.28125 -18.703125 18.28125 -18.234375 Z M 18.28125 -18.234375 "/></g></g></g><g fill="#00b2a9" fill-opacity="1"><g transform="translate(129.745693, 45.785842)"><g/></g></g><g fill="#00b2a9" fill-opacity="1"><g transform="translate(140.104121, 45.785842)"><g><path d="M 32.125 -36.546875 C 32.4375 -36.546875 32.679688 -36.445312 32.859375 -36.25 C 33.035156 -36.050781 33.125 -35.847656 33.125 -35.640625 C 33.125 -35.441406 32.960938 -35.070312 32.640625 -34.53125 C 32.328125 -33.988281 31.601562 -32.800781 30.46875 -30.96875 C 29.332031 -29.144531 28.445312 -27.710938 27.8125 -26.671875 C 24.125 -20.671875 21.226562 -15.597656 19.125 -11.453125 C 17.03125 -7.304688 15.984375 -4.804688 15.984375 -3.953125 L 15.984375 -3.75 C 15.984375 -3.082031 16.226562 -2.75 16.71875 -2.75 C 17.207031 -2.75 17.796875 -2.976562 18.484375 -3.4375 C 19.179688 -3.894531 19.785156 -4.378906 20.296875 -4.890625 C 20.816406 -5.410156 21.34375 -5.953125 21.875 -6.515625 C 22.40625 -7.078125 22.726562 -7.40625 22.84375 -7.5 C 22.957031 -7.601562 23.101562 -7.65625 23.28125 -7.65625 C 23.550781 -7.65625 23.726562 -7.476562 23.8125 -7.125 C 23.894531 -6.78125 23.9375 -6.296875 23.9375 -5.671875 C 23.9375 -5.046875 23.890625 -4.632812 23.796875 -4.4375 C 23.316406 -3.53125 22.273438 -2.421875 20.671875 -1.109375 C 19.078125 0.203125 17.566406 0.859375 16.140625 0.859375 C 13.703125 0.859375 12.484375 -0.175781 12.484375 -2.25 C 12.484375 -3.53125 12.96875 -5.207031 13.9375 -7.28125 C 12.625 -5.582031 11.285156 -4.128906 9.921875 -2.921875 C 7.390625 -0.710938 5.1875 0.390625 3.3125 0.390625 C 2.269531 0.390625 1.5 0.0234375 1 -0.703125 C 0.507812 -1.429688 0.265625 -2.484375 0.265625 -3.859375 C 0.265625 -5.234375 0.800781 -6.878906 1.875 -8.796875 C 2.945312 -10.710938 4.28125 -12.4375 5.875 -13.96875 C 7.476562 -15.507812 9.253906 -16.796875 11.203125 -17.828125 C 13.160156 -18.859375 14.957031 -19.375 16.59375 -19.375 C 17.113281 -19.375 17.722656 -19.054688 18.421875 -18.421875 C 18.898438 -19.171875 19.769531 -20.664062 21.03125 -22.90625 C 25.019531 -29.625 27.65625 -33.722656 28.9375 -35.203125 C 29.613281 -36.097656 30.675781 -36.546875 32.125 -36.546875 Z M 16.9375 -16.140625 C 14.601562 -15.617188 12.425781 -14.53125 10.40625 -12.875 C 8.394531 -11.21875 6.882812 -9.484375 5.875 -7.671875 C 4.863281 -5.859375 4.359375 -4.679688 4.359375 -4.140625 C 4.359375 -3.609375 4.472656 -3.34375 4.703125 -3.34375 C 5.679688 -3.34375 8.09375 -5.519531 11.9375 -9.875 C 13.863281 -12.019531 15.53125 -14.109375 16.9375 -16.140625 Z M 16.9375 -16.140625 "/></g></g></g><g fill="#00b2a9" fill-opacity="1"><g transform="translate(160.650362, 45.785842)"><g><path d="M 18.28125 -18.234375 C 18.28125 -17.160156 17.84375 -16.21875 16.96875 -15.40625 C 16.101562 -14.59375 15.117188 -14.1875 14.015625 -14.1875 C 13.660156 -14.1875 13.425781 -14.269531 13.3125 -14.4375 C 13.195312 -14.613281 13.140625 -14.835938 13.140625 -15.109375 C 13.140625 -15.390625 13.171875 -15.660156 13.234375 -15.921875 C 12.648438 -15.722656 12 -15.421875 11.28125 -15.015625 C 10.570312 -14.609375 9.695312 -14.003906 8.65625 -13.203125 C 7.613281 -12.410156 7.09375 -11.820312 7.09375 -11.4375 C 7.09375 -11.300781 7.28125 -11.234375 7.65625 -11.234375 C 8.039062 -11.234375 8.628906 -11.367188 9.421875 -11.640625 C 10.222656 -11.910156 10.78125 -12.046875 11.09375 -12.046875 C 11.414062 -12.046875 11.625 -12.03125 11.71875 -12 C 11.9375 -11.882812 12.164062 -11.632812 12.40625 -11.25 C 12.644531 -10.863281 12.765625 -10.5625 12.765625 -10.34375 C 12.765625 -10.125 12.550781 -9.835938 12.125 -9.484375 C 11.707031 -9.128906 11.226562 -8.859375 10.6875 -8.671875 C 10.15625 -8.484375 9.800781 -8.335938 9.625 -8.234375 C 6.195312 -6.316406 4.484375 -5.003906 4.484375 -4.296875 C 4.484375 -3.023438 5.566406 -2.390625 7.734375 -2.390625 C 9.109375 -2.390625 10.492188 -2.828125 11.890625 -3.703125 C 13.078125 -4.453125 14.144531 -5.210938 15.09375 -5.984375 C 16.050781 -6.753906 16.65625 -7.226562 16.90625 -7.40625 C 17.15625 -7.582031 17.347656 -7.671875 17.484375 -7.671875 C 17.898438 -7.671875 18.109375 -7.195312 18.109375 -6.25 C 18.109375 -5.3125 18.050781 -4.691406 17.9375 -4.390625 C 17.820312 -4.097656 17.5 -3.734375 16.96875 -3.296875 C 13.488281 -0.460938 10.195312 0.953125 7.09375 0.953125 C 5.4375 0.953125 4.113281 0.722656 3.125 0.265625 C 1.300781 -0.554688 0.390625 -1.820312 0.390625 -3.53125 C 0.390625 -5.769531 1.941406 -7.46875 5.046875 -8.625 C 4.429688 -8.90625 4.03125 -9.257812 3.84375 -9.6875 C 3.664062 -10.113281 3.578125 -10.800781 3.578125 -11.75 C 3.578125 -12.707031 4.019531 -13.71875 4.90625 -14.78125 C 5.789062 -15.84375 6.878906 -16.71875 8.171875 -17.40625 C 11.023438 -18.945312 13.570312 -19.71875 15.8125 -19.71875 C 16.351562 -19.71875 16.898438 -19.585938 17.453125 -19.328125 C 18.003906 -19.066406 18.28125 -18.703125 18.28125 -18.234375 Z M 18.28125 -18.234375 "/></g></g></g><g fill="#00b2a9" fill-opacity="1"><g transform="translate(176.492655, 45.785842)"><g/></g></g><g fill="#00b2a9" fill-opacity="1"><g transform="translate(186.851083, 45.785842)"><g><path d="M 1.515625 0.140625 L 0.3125 0.09375 L -0.125 0.09375 C -0.28125 0.0507812 -0.453125 -0.0390625 -0.640625 -0.1875 C -0.828125 -0.34375 -0.96875 -0.453125 -1.0625 -0.515625 C -1.164062 -0.578125 -1.21875 -0.691406 -1.21875 -0.859375 C -1.21875 -1.035156 -1.15625 -1.332031 -1.03125 -1.75 C 2.144531 -8.726562 5.210938 -14.304688 8.171875 -18.484375 C 8.492188 -18.929688 9.015625 -19.269531 9.734375 -19.5 C 10.460938 -19.738281 11.164062 -19.859375 11.84375 -19.859375 C 12.25 -19.859375 12.453125 -19.546875 12.453125 -18.921875 C 12.453125 -18.734375 12.382812 -18.488281 12.25 -18.1875 C 12.125 -17.894531 11.800781 -17.40625 11.28125 -16.71875 C 10.757812 -16.039062 10.140625 -15.257812 9.421875 -14.375 C 8.710938 -13.5 8.3125 -13 8.21875 -12.875 C 10.4375 -15.175781 12.441406 -16.890625 14.234375 -18.015625 C 16.035156 -19.148438 17.335938 -19.71875 18.140625 -19.71875 C 18.953125 -19.71875 19.570312 -19.484375 20 -19.015625 C 20.425781 -18.554688 20.640625 -18.0625 20.640625 -17.53125 C 20.640625 -17.007812 20.601562 -16.570312 20.53125 -16.21875 C 20.457031 -15.875 20.320312 -15.507812 20.125 -15.125 C 19.9375 -14.738281 19.769531 -14.410156 19.625 -14.140625 C 19.488281 -13.878906 19.257812 -13.53125 18.9375 -13.09375 C 18.613281 -12.664062 18.390625 -12.367188 18.265625 -12.203125 C 18.148438 -12.046875 17.898438 -11.738281 17.515625 -11.28125 C 17.128906 -10.832031 16.921875 -10.582031 16.890625 -10.53125 C 17.347656 -10.988281 17.984375 -11.660156 18.796875 -12.546875 C 19.609375 -13.441406 20.289062 -14.191406 20.84375 -14.796875 C 21.40625 -15.398438 22.109375 -16.078125 22.953125 -16.828125 C 23.804688 -17.585938 24.597656 -18.203125 25.328125 -18.671875 C 27.078125 -19.773438 28.859375 -20.328125 30.671875 -20.328125 C 31.285156 -20.328125 31.800781 -20.128906 32.21875 -19.734375 C 32.644531 -19.347656 32.859375 -18.882812 32.859375 -18.34375 C 32.859375 -17.800781 32.195312 -16.5 30.875 -14.4375 C 29.5625 -12.382812 28.25 -10.320312 26.9375 -8.25 C 25.632812 -6.175781 24.984375 -4.875 24.984375 -4.34375 C 24.984375 -3.59375 25.117188 -3.144531 25.390625 -3 C 25.671875 -2.863281 26.003906 -2.8125 26.390625 -2.84375 C 26.785156 -2.882812 27.335938 -3.140625 28.046875 -3.609375 C 28.753906 -4.078125 29.382812 -4.5625 29.9375 -5.0625 C 30.832031 -5.875 31.660156 -6.664062 32.421875 -7.4375 C 32.578125 -7.582031 32.753906 -7.65625 32.953125 -7.65625 C 33.265625 -7.65625 33.453125 -7.414062 33.515625 -6.9375 C 33.578125 -6.46875 33.609375 -5.984375 33.609375 -5.484375 C 33.609375 -4.984375 33.5625 -4.632812 33.46875 -4.4375 C 33 -3.53125 31.957031 -2.414062 30.34375 -1.09375 C 28.738281 0.21875 27.195312 0.875 25.71875 0.875 C 25.539062 0.875 25.410156 0.867188 25.328125 0.859375 C 23.648438 0.691406 22.488281 0.234375 21.84375 -0.515625 C 21.207031 -1.273438 20.890625 -2.175781 20.890625 -3.21875 C 20.890625 -4.257812 21.242188 -5.519531 21.953125 -7 C 22.660156 -8.476562 23.4375 -9.816406 24.28125 -11.015625 C 25.125 -12.222656 25.898438 -13.304688 26.609375 -14.265625 C 27.316406 -15.234375 27.671875 -15.757812 27.671875 -15.84375 C 27.671875 -15.925781 27.601562 -15.96875 27.46875 -15.96875 C 26.96875 -15.96875 25.847656 -15.15625 24.109375 -13.53125 C 21.128906 -10.75 18.5625 -8.066406 16.40625 -5.484375 C 15.832031 -4.796875 14.484375 -3.066406 12.359375 -0.296875 C 12.117188 0.0234375 11.734375 0.1875 11.203125 0.1875 C 10.671875 0.1875 10.117188 0.0859375 9.546875 -0.109375 C 8.984375 -0.316406 8.703125 -0.582031 8.703125 -0.90625 C 8.703125 -1.0625 9.992188 -3.335938 12.578125 -7.734375 C 15.160156 -12.128906 16.453125 -14.523438 16.453125 -14.921875 C 16.453125 -15.328125 16.210938 -15.53125 15.734375 -15.53125 C 15.253906 -15.53125 14.265625 -14.8125 12.765625 -13.375 C 8.660156 -9.445312 5.476562 -5.539062 3.21875 -1.65625 C 3.070312 -1.425781 2.785156 -1.066406 2.359375 -0.578125 C 1.941406 -0.0976562 1.660156 0.140625 1.515625 0.140625 Z M 1.515625 0.140625 "/></g></g></g><g fill="#00b2a9" fill-opacity="1"><g transform="translate(217.219551, 45.785842)"><g><path d="M 20.109375 -18.53125 C 21.347656 -18.53125 21.96875 -18.109375 21.96875 -17.265625 C 21.96875 -16.804688 21.859375 -16.46875 21.640625 -16.25 C 21.429688 -16.039062 20.976562 -15.335938 20.28125 -14.140625 C 19.59375 -12.953125 18.832031 -11.425781 18 -9.5625 C 17.164062 -7.707031 16.625 -6.117188 16.375 -4.796875 C 16.332031 -4.640625 16.3125 -4.414062 16.3125 -4.125 C 16.3125 -3.226562 16.550781 -2.78125 17.03125 -2.78125 C 17.519531 -2.78125 18.097656 -3.007812 18.765625 -3.46875 C 19.429688 -3.9375 20.023438 -4.429688 20.546875 -4.953125 C 21.066406 -5.484375 21.570312 -6.023438 22.0625 -6.578125 C 22.5625 -7.128906 22.859375 -7.445312 22.953125 -7.53125 C 23.054688 -7.613281 23.207031 -7.65625 23.40625 -7.65625 C 23.707031 -7.65625 23.890625 -7.414062 23.953125 -6.9375 C 24.023438 -6.46875 24.0625 -5.984375 24.0625 -5.484375 C 24.0625 -4.984375 24.007812 -4.632812 23.90625 -4.4375 C 23.4375 -3.507812 22.398438 -2.394531 20.796875 -1.09375 C 19.203125 0.207031 17.75 0.859375 16.4375 0.859375 C 15.132812 0.859375 14.171875 0.460938 13.546875 -0.328125 C 12.929688 -1.128906 12.625 -2.015625 12.625 -2.984375 C 12.625 -3.953125 12.785156 -4.800781 13.109375 -5.53125 C 11.765625 -3.78125 10.21875 -2.296875 8.46875 -1.078125 C 6.71875 0.140625 5.289062 0.75 4.1875 0.75 C 3.082031 0.75 2.179688 0.414062 1.484375 -0.25 C 0.585938 -1.070312 0.140625 -2.21875 0.140625 -3.6875 C 0.140625 -5.164062 0.46875 -6.644531 1.125 -8.125 C 1.789062 -9.613281 2.660156 -10.972656 3.734375 -12.203125 C 4.804688 -13.429688 5.984375 -14.546875 7.265625 -15.546875 C 9.960938 -17.660156 12.445312 -18.71875 14.71875 -18.71875 C 15.601562 -18.71875 16.320312 -18.570312 16.875 -18.28125 C 17.425781 -17.988281 17.773438 -17.625 17.921875 -17.1875 C 18.304688 -17.769531 18.632812 -18.140625 18.90625 -18.296875 C 19.175781 -18.453125 19.578125 -18.53125 20.109375 -18.53125 Z M 16.875 -15.8125 C 14.09375 -15.8125 11.210938 -14.269531 8.234375 -11.1875 C 7.179688 -10.082031 6.210938 -8.757812 5.328125 -7.21875 C 4.441406 -5.675781 4 -4.617188 4 -4.046875 C 4 -3.472656 4.160156 -3.1875 4.484375 -3.1875 C 4.941406 -3.1875 6.207031 -4.082031 8.28125 -5.875 C 10.363281 -7.675781 11.75 -9 12.4375 -9.84375 C 13.175781 -10.789062 14.65625 -12.78125 16.875 -15.8125 Z M 16.875 -15.8125 "/></g></g></g><g fill="#00b2a9" fill-opacity="1"><g transform="translate(237.546443, 45.785842)"><g><path d="M 14.234375 -3.75 C 14.234375 -3.039062 14.722656 -2.6875 15.703125 -2.6875 C 16.222656 -2.6875 16.875 -2.941406 17.65625 -3.453125 C 18.445312 -3.972656 19.160156 -4.546875 19.796875 -5.171875 C 21.484375 -6.835938 22.441406 -7.671875 22.671875 -7.671875 C 23.085938 -7.671875 23.296875 -7.0625 23.296875 -5.84375 C 23.296875 -4.625 22.914062 -3.789062 22.15625 -3.34375 C 19.832031 -1.238281 18.035156 0.0351562 16.765625 0.484375 C 16.054688 0.734375 15.269531 0.847656 14.40625 0.828125 C 13.539062 0.804688 12.6875 0.429688 11.84375 -0.296875 C 11 -1.023438 10.578125 -1.910156 10.578125 -2.953125 C 10.578125 -4.003906 10.851562 -5.195312 11.40625 -6.53125 C 11.957031 -7.863281 12.519531 -9.003906 13.09375 -9.953125 C 13.675781 -10.910156 14.390625 -12.015625 15.234375 -13.265625 C 16.078125 -14.523438 16.523438 -15.3125 16.578125 -15.625 L 16.53125 -15.671875 C 15.988281 -15.617188 14.65625 -14.5625 12.53125 -12.5 C 10.414062 -10.4375 8.664062 -8.640625 7.28125 -7.109375 C 5.90625 -5.585938 4.257812 -3.550781 2.34375 -1 C 1.800781 -0.300781 1.359375 0.046875 1.015625 0.046875 C 0.679688 0.046875 0.226562 -0.0625 -0.34375 -0.28125 C -0.925781 -0.5 -1.28125 -0.65625 -1.40625 -0.75 C -1.539062 -0.851562 -1.609375 -1 -1.609375 -1.1875 C -1.609375 -1.382812 -1.550781 -1.625 -1.4375 -1.90625 C -1.320312 -2.195312 -1.210938 -2.4375 -1.109375 -2.625 C -1.003906 -2.8125 -0.828125 -3.097656 -0.578125 -3.484375 C -0.335938 -3.878906 0.140625 -4.703125 0.859375 -5.953125 C 1.585938 -7.210938 2.695312 -9.09375 4.1875 -11.59375 C 5.6875 -14.101562 6.582031 -15.617188 6.875 -16.140625 C 7.488281 -17.210938 7.992188 -17.992188 8.390625 -18.484375 C 9.117188 -19.398438 10.351562 -19.859375 12.09375 -19.859375 C 12.476562 -19.859375 12.671875 -19.617188 12.671875 -19.140625 C 12.671875 -18.367188 11.96875 -16.929688 10.5625 -14.828125 L 9.53125 -13.28125 C 12.34375 -16.40625 14.71875 -18.378906 16.65625 -19.203125 C 17.59375 -19.609375 18.4375 -19.8125 19.1875 -19.8125 C 19.945312 -19.8125 20.550781 -19.609375 21 -19.203125 C 21.445312 -18.796875 21.671875 -18.34375 21.671875 -17.84375 C 21.671875 -17.351562 21.5 -16.765625 21.15625 -16.078125 C 20.8125 -15.390625 20.460938 -14.769531 20.109375 -14.21875 C 19.765625 -13.675781 19.304688 -12.988281 18.734375 -12.15625 C 18.171875 -11.332031 17.863281 -10.882812 17.8125 -10.8125 C 17.769531 -10.738281 17.644531 -10.539062 17.4375 -10.21875 C 17.238281 -9.90625 17.085938 -9.675781 16.984375 -9.53125 C 16.890625 -9.382812 16.726562 -9.128906 16.5 -8.765625 C 16.269531 -8.398438 16.085938 -8.09375 15.953125 -7.84375 C 15.816406 -7.601562 15.644531 -7.300781 15.4375 -6.9375 C 15.238281 -6.582031 15.078125 -6.273438 14.953125 -6.015625 C 14.828125 -5.753906 14.703125 -5.472656 14.578125 -5.171875 C 14.347656 -4.597656 14.234375 -4.125 14.234375 -3.75 Z M 14.234375 -3.75 "/></g></g></g><g fill="#00b2a9" fill-opacity="1"><g transform="translate(257.04465, 45.785842)"><g><path d="M 18.0625 -18.578125 C 18.550781 -18.578125 19.050781 -18.359375 19.5625 -17.921875 C 20.070312 -17.484375 20.328125 -16.8125 20.328125 -15.90625 C 20.328125 -15 20.007812 -13.828125 19.375 -12.390625 C 18.738281 -10.953125 17.867188 -9.488281 16.765625 -8 C 15.660156 -6.519531 14.445312 -5.125 13.125 -3.8125 C 11.800781 -2.507812 10.367188 -1.4375 8.828125 -0.59375 C 7.296875 0.238281 5.90625 0.65625 4.65625 0.65625 C 3.40625 0.65625 2.398438 0.265625 1.640625 -0.515625 C 0.890625 -1.304688 0.515625 -2.40625 0.515625 -3.8125 C 0.515625 -5.21875 0.859375 -6.773438 1.546875 -8.484375 C 2.234375 -10.191406 3.117188 -11.695312 4.203125 -13 C 5.296875 -14.3125 6.476562 -15.488281 7.75 -16.53125 C 10.394531 -18.65625 12.71875 -19.71875 14.71875 -19.71875 C 15.613281 -19.71875 16.289062 -19.5 16.75 -19.0625 C 16.90625 -18.914062 16.984375 -18.785156 16.984375 -18.671875 L 16.984375 -18.53125 C 17.210938 -18.5625 17.570312 -18.578125 18.0625 -18.578125 Z M 15.59375 -15.328125 L 15.4375 -15.328125 C 14.863281 -15.328125 14.578125 -15.742188 14.578125 -16.578125 C 13.390625 -16.179688 12.144531 -15.492188 10.84375 -14.515625 C 9.539062 -13.546875 8.378906 -12.394531 7.359375 -11.0625 C 5.273438 -8.394531 4.21875 -6.144531 4.1875 -4.3125 C 4.1875 -3.40625 4.519531 -2.953125 5.1875 -2.953125 C 5.851562 -2.953125 6.84375 -3.390625 8.15625 -4.265625 C 9.476562 -5.140625 10.785156 -6.390625 12.078125 -8.015625 C 13.367188 -9.640625 14.332031 -11.050781 14.96875 -12.25 C 15.613281 -13.445312 15.9375 -14.257812 15.9375 -14.6875 C 15.9375 -15.113281 15.820312 -15.328125 15.59375 -15.328125 Z M 15.59375 -15.328125 "/></g></g></g><g fill="#00b2a9" fill-opacity="1"><g transform="translate(275.324207, 45.785842)"><g><path d="M 4.1875 -4.875 L 4.171875 -4.484375 C 4.171875 -4.078125 4.320312 -3.726562 4.625 -3.4375 C 4.9375 -3.144531 5.222656 -3 5.484375 -3 C 7.429688 -3 9.15625 -3.289062 10.65625 -3.875 C 12.164062 -4.457031 12.921875 -5.039062 12.921875 -5.625 C 12.921875 -5.90625 12.644531 -6.144531 12.09375 -6.34375 C 11.550781 -6.550781 10.632812 -6.804688 9.34375 -7.109375 C 8.050781 -7.410156 7.113281 -7.644531 6.53125 -7.8125 C 5.945312 -7.976562 5.484375 -8.132812 5.140625 -8.28125 C 4.796875 -8.425781 4.445312 -8.628906 4.09375 -8.890625 C 3.332031 -9.429688 2.953125 -10.234375 2.953125 -11.296875 C 2.953125 -12.359375 3.34375 -13.414062 4.125 -14.46875 C 4.914062 -15.519531 5.90625 -16.414062 7.09375 -17.15625 C 8.28125 -17.90625 9.554688 -18.566406 10.921875 -19.140625 C 13.617188 -20.253906 15.882812 -20.8125 17.71875 -20.8125 C 19.519531 -20.8125 20.632812 -20.421875 21.0625 -19.640625 C 21.1875 -19.367188 21.25 -19.0625 21.25 -18.71875 L 21.25 -18.546875 C 21.25 -17.691406 21.066406 -17.019531 20.703125 -16.53125 C 20.335938 -16.039062 19.757812 -15.597656 18.96875 -15.203125 C 18.1875 -14.816406 17.5625 -14.625 17.09375 -14.625 C 16.632812 -14.625 16.34375 -14.65625 16.21875 -14.71875 C 16.101562 -14.789062 16.003906 -14.878906 15.921875 -14.984375 C 15.835938 -15.085938 15.734375 -15.160156 15.609375 -15.203125 C 15.492188 -15.253906 15.4375 -15.378906 15.4375 -15.578125 C 15.4375 -15.773438 15.515625 -15.972656 15.671875 -16.171875 C 15.835938 -16.378906 15.953125 -16.59375 16.015625 -16.8125 C 14.941406 -16.769531 13.816406 -16.523438 12.640625 -16.078125 C 11.472656 -15.628906 10.472656 -15.128906 9.640625 -14.578125 C 8.804688 -14.023438 8.113281 -13.492188 7.5625 -12.984375 C 7.007812 -12.484375 6.734375 -12.113281 6.734375 -11.875 C 6.734375 -11.644531 7.101562 -11.457031 7.84375 -11.3125 C 11.207031 -10.644531 13.414062 -10.066406 14.46875 -9.578125 C 15.53125 -9.085938 16.265625 -8.535156 16.671875 -7.921875 C 17.078125 -7.304688 17.28125 -6.742188 17.28125 -6.234375 C 17.28125 -5.203125 16.863281 -4.222656 16.03125 -3.296875 C 15.207031 -2.367188 14.1875 -1.613281 12.96875 -1.03125 C 10.351562 0.257812 8.070312 0.90625 6.125 0.90625 C 4.1875 0.90625 2.847656 0.609375 2.109375 0.015625 C 1.367188 -0.578125 1 -1.28125 1 -2.09375 C 1 -2.90625 1.207031 -3.65625 1.625 -4.34375 C 2.039062 -5.039062 2.570312 -5.390625 3.21875 -5.390625 C 3.863281 -5.390625 4.1875 -5.21875 4.1875 -4.875 Z M 4.1875 -4.875 "/></g></g></g></svg>