<svg xmlns="http://www.w3.org/2000/svg" xmlns:xlink="http://www.w3.org/1999/xlink" width="400" zoomAndPan="magnify" viewBox="0 0 300 67.499998" height="90" preserveAspectRatio="xMidYMid meet" version="1.0"><defs><g/></defs><g fill="#00b2a9" fill-opacity="1"><g transform="translate(4.393603, 47.881907)"><g><path d="M 14.546875 -8.671875 L 14.40625 -8.109375 C 14.40625 -7.992188 14.453125 -7.890625 14.546875 -7.796875 C 14.648438 -7.710938 14.773438 -7.671875 14.921875 -7.671875 C 15.066406 -7.671875 15.1875 -7.742188 15.28125 -7.890625 C 17.988281 -11.484375 20.234375 -14.648438 22.015625 -17.390625 C 23.796875 -20.128906 25.097656 -22.144531 25.921875 -23.4375 C 26.753906 -24.726562 27.414062 -25.753906 27.90625 -26.515625 C 29.21875 -28.515625 30.519531 -30.304688 31.8125 -31.890625 C 26.90625 -30.648438 23.054688 -30.03125 20.265625 -30.03125 C 17.484375 -30.03125 15.484375 -30.207031 14.265625 -30.5625 C 13.046875 -30.925781 12.242188 -31.328125 11.859375 -31.765625 C 11.484375 -32.210938 11.296875 -32.664062 11.296875 -33.125 C 11.296875 -33.59375 11.3125 -34.046875 11.34375 -34.484375 C 11.414062 -35.390625 11.96875 -36.132812 13 -36.71875 C 14.03125 -37.300781 14.878906 -37.59375 15.546875 -37.59375 C 16.222656 -37.59375 16.5625 -37.492188 16.5625 -37.296875 C 16.5625 -37.097656 16.410156 -36.828125 16.109375 -36.484375 C 15.804688 -36.148438 15.65625 -35.921875 15.65625 -35.796875 C 15.65625 -35.210938 17.753906 -34.921875 21.953125 -34.921875 C 26.160156 -34.921875 30.992188 -35.476562 36.453125 -36.59375 C 39.578125 -39.132812 42.273438 -40.40625 44.546875 -40.40625 C 46.054688 -40.40625 47.054688 -39.976562 47.546875 -39.125 C 47.878906 -38.613281 48.046875 -38.101562 48.046875 -37.59375 C 48.046875 -37.082031 47.75 -36.570312 47.15625 -36.0625 C 46.5625 -35.550781 45.765625 -35.117188 44.765625 -34.765625 C 42.953125 -34.109375 40.804688 -33.585938 38.328125 -33.203125 C 37.296875 -31.878906 35.828125 -29.816406 33.921875 -27.015625 C 32.023438 -24.210938 30.726562 -22.316406 30.03125 -21.328125 C 29.34375 -20.347656 28.226562 -18.601562 26.6875 -16.09375 C 25.15625 -13.582031 23.820312 -11.410156 22.6875 -9.578125 C 21.5625 -7.753906 20.363281 -5.953125 19.09375 -4.171875 C 16.5 -0.492188 14.179688 1.34375 12.140625 1.34375 C 11.285156 1.34375 10.546875 1.113281 9.921875 0.65625 C 9.304688 0.195312 9 -0.539062 9 -1.5625 C 9 -2.59375 9.566406 -3.875 10.703125 -5.40625 C 11.835938 -6.945312 12.671875 -7.9375 13.203125 -8.375 C 13.734375 -8.8125 14.085938 -9.03125 14.265625 -9.03125 C 14.453125 -9.03125 14.546875 -8.910156 14.546875 -8.671875 Z M 14.546875 -8.671875 "/></g></g></g><g fill="#00b2a9" fill-opacity="1"><g transform="translate(36.069198, 47.881907)"><g><path d="M 20.46875 -20.40625 C 20.46875 -19.207031 19.976562 -18.148438 19 -17.234375 C 18.03125 -16.328125 16.925781 -15.875 15.6875 -15.875 C 15.289062 -15.875 15.023438 -15.96875 14.890625 -16.15625 C 14.765625 -16.351562 14.703125 -16.601562 14.703125 -16.90625 C 14.703125 -17.21875 14.738281 -17.519531 14.8125 -17.8125 C 14.15625 -17.59375 13.425781 -17.253906 12.625 -16.796875 C 11.832031 -16.347656 10.851562 -15.675781 9.6875 -14.78125 C 8.519531 -13.894531 7.9375 -13.234375 7.9375 -12.796875 C 7.9375 -12.648438 8.148438 -12.578125 8.578125 -12.578125 C 9.003906 -12.578125 9.660156 -12.726562 10.546875 -13.03125 C 11.441406 -13.332031 12.066406 -13.484375 12.421875 -13.484375 C 12.773438 -13.484375 13.007812 -13.460938 13.125 -13.421875 C 13.363281 -13.296875 13.617188 -13.019531 13.890625 -12.59375 C 14.160156 -12.164062 14.296875 -11.828125 14.296875 -11.578125 C 14.296875 -11.335938 14.054688 -11.015625 13.578125 -10.609375 C 13.109375 -10.210938 12.570312 -9.910156 11.96875 -9.703125 C 11.375 -9.492188 10.976562 -9.332031 10.78125 -9.21875 C 6.9375 -7.070312 5.015625 -5.597656 5.015625 -4.796875 C 5.015625 -3.378906 6.226562 -2.671875 8.65625 -2.671875 C 10.195312 -2.671875 11.75 -3.160156 13.3125 -4.140625 C 14.644531 -4.984375 15.84375 -5.835938 16.90625 -6.703125 C 17.96875 -7.566406 18.640625 -8.097656 18.921875 -8.296875 C 19.203125 -8.492188 19.414062 -8.59375 19.5625 -8.59375 C 20.03125 -8.59375 20.265625 -8.0625 20.265625 -7 C 20.265625 -5.945312 20.203125 -5.253906 20.078125 -4.921875 C 19.953125 -4.585938 19.585938 -4.175781 18.984375 -3.6875 C 15.097656 -0.519531 11.414062 1.0625 7.9375 1.0625 C 6.082031 1.0625 4.601562 0.804688 3.5 0.296875 C 1.457031 -0.628906 0.4375 -2.046875 0.4375 -3.953125 C 0.4375 -6.460938 2.171875 -8.363281 5.640625 -9.65625 C 4.953125 -9.96875 4.507812 -10.363281 4.3125 -10.84375 C 4.113281 -11.320312 4.015625 -12.09375 4.015625 -13.15625 C 4.015625 -14.226562 4.507812 -15.359375 5.5 -16.546875 C 6.488281 -17.734375 7.703125 -18.710938 9.140625 -19.484375 C 12.335938 -21.210938 15.191406 -22.078125 17.703125 -22.078125 C 18.304688 -22.078125 18.914062 -21.929688 19.53125 -21.640625 C 20.15625 -21.347656 20.46875 -20.9375 20.46875 -20.40625 Z M 20.46875 -20.40625 "/></g></g></g><g fill="#00b2a9" fill-opacity="1"><g transform="translate(53.803162, 47.881907)"><g><path d="M 24.3125 -40.953125 C 25.1875 -40.953125 25.953125 -40.691406 26.609375 -40.171875 C 27.273438 -39.648438 27.609375 -38.878906 27.609375 -37.859375 C 27.609375 -36.847656 27.046875 -35.253906 25.921875 -33.078125 C 24.796875 -30.898438 23.441406 -28.679688 21.859375 -26.421875 C 20.273438 -24.160156 18.484375 -21.753906 16.484375 -19.203125 C 13.316406 -15.171875 10.273438 -11.546875 7.359375 -8.328125 C 7.347656 -8.109375 7.273438 -7.703125 7.140625 -7.109375 C 7.003906 -6.515625 6.9375 -5.914062 6.9375 -5.3125 C 6.9375 -4.71875 7.210938 -4.175781 7.765625 -3.6875 C 8.316406 -3.207031 9 -2.96875 9.8125 -2.96875 C 10.632812 -2.96875 11.515625 -3.257812 12.453125 -3.84375 C 13.390625 -4.425781 14.203125 -5.070312 14.890625 -5.78125 C 16.710938 -7.65625 17.84375 -8.59375 18.28125 -8.59375 C 18.71875 -8.59375 18.9375 -7.929688 18.9375 -6.609375 L 18.9375 -6.0625 C 18.9375 -5.351562 18.804688 -4.832031 18.546875 -4.5 C 17.023438 -2.625 15.304688 -1.226562 13.390625 -0.3125 C 11.484375 0.601562 9.675781 1.0625 7.96875 1.0625 C 6.257812 1.0625 4.957031 0.539062 4.0625 -0.5 C 3.175781 -1.550781 2.734375 -2.984375 2.734375 -4.796875 C 2.734375 -8.347656 3.679688 -12.519531 5.578125 -17.3125 C 7.484375 -22.101562 9.625 -26.179688 12 -29.546875 C 17.363281 -37.148438 21.46875 -40.953125 24.3125 -40.953125 Z M 23.078125 -36.421875 C 23.078125 -36.691406 22.988281 -36.828125 22.8125 -36.828125 C 22.175781 -36.828125 20.5 -35.007812 17.78125 -31.375 C 15.070312 -27.738281 13.113281 -24.835938 11.90625 -22.671875 C 10.695312 -20.503906 9.554688 -17.785156 8.484375 -14.515625 C 10.628906 -17.054688 13.597656 -21.023438 17.390625 -26.421875 C 21.179688 -31.816406 23.078125 -35.148438 23.078125 -36.421875 Z M 23.078125 -36.421875 "/></g></g></g><g fill="#00b2a9" fill-opacity="1"><g transform="translate(68.208598, 47.881907)"><g><path d="M 20.46875 -20.40625 C 20.46875 -19.207031 19.976562 -18.148438 19 -17.234375 C 18.03125 -16.328125 16.925781 -15.875 15.6875 -15.875 C 15.289062 -15.875 15.023438 -15.96875 14.890625 -16.15625 C 14.765625 -16.351562 14.703125 -16.601562 14.703125 -16.90625 C 14.703125 -17.21875 14.738281 -17.519531 14.8125 -17.8125 C 14.15625 -17.59375 13.425781 -17.253906 12.625 -16.796875 C 11.832031 -16.347656 10.851562 -15.675781 9.6875 -14.78125 C 8.519531 -13.894531 7.9375 -13.234375 7.9375 -12.796875 C 7.9375 -12.648438 8.148438 -12.578125 8.578125 -12.578125 C 9.003906 -12.578125 9.660156 -12.726562 10.546875 -13.03125 C 11.441406 -13.332031 12.066406 -13.484375 12.421875 -13.484375 C 12.773438 -13.484375 13.007812 -13.460938 13.125 -13.421875 C 13.363281 -13.296875 13.617188 -13.019531 13.890625 -12.59375 C 14.160156 -12.164062 14.296875 -11.828125 14.296875 -11.578125 C 14.296875 -11.335938 14.054688 -11.015625 13.578125 -10.609375 C 13.109375 -10.210938 12.570312 -9.910156 11.96875 -9.703125 C 11.375 -9.492188 10.976562 -9.332031 10.78125 -9.21875 C 6.9375 -7.070312 5.015625 -5.597656 5.015625 -4.796875 C 5.015625 -3.378906 6.226562 -2.671875 8.65625 -2.671875 C 10.195312 -2.671875 11.75 -3.160156 13.3125 -4.140625 C 14.644531 -4.984375 15.84375 -5.835938 16.90625 -6.703125 C 17.96875 -7.566406 18.640625 -8.097656 18.921875 -8.296875 C 19.203125 -8.492188 19.414062 -8.59375 19.5625 -8.59375 C 20.03125 -8.59375 20.265625 -8.0625 20.265625 -7 C 20.265625 -5.945312 20.203125 -5.253906 20.078125 -4.921875 C 19.953125 -4.585938 19.585938 -4.175781 18.984375 -3.6875 C 15.097656 -0.519531 11.414062 1.0625 7.9375 1.0625 C 6.082031 1.0625 4.601562 0.804688 3.5 0.296875 C 1.457031 -0.628906 0.4375 -2.046875 0.4375 -3.953125 C 0.4375 -6.460938 2.171875 -8.363281 5.640625 -9.65625 C 4.953125 -9.96875 4.507812 -10.363281 4.3125 -10.84375 C 4.113281 -11.320312 4.015625 -12.09375 4.015625 -13.15625 C 4.015625 -14.226562 4.507812 -15.359375 5.5 -16.546875 C 6.488281 -17.734375 7.703125 -18.710938 9.140625 -19.484375 C 12.335938 -21.210938 15.191406 -22.078125 17.703125 -22.078125 C 18.304688 -22.078125 18.914062 -21.929688 19.53125 -21.640625 C 20.15625 -21.347656 20.46875 -20.9375 20.46875 -20.40625 Z M 20.46875 -20.40625 "/></g></g></g><g fill="#00b2a9" fill-opacity="1"><g transform="translate(85.942562, 47.881907)"><g><path d="M 20.46875 -20.40625 C 20.46875 -19.207031 19.976562 -18.148438 19 -17.234375 C 18.03125 -16.328125 16.925781 -15.875 15.6875 -15.875 C 15.289062 -15.875 15.023438 -15.96875 14.890625 -16.15625 C 14.765625 -16.351562 14.703125 -16.601562 14.703125 -16.90625 C 14.703125 -17.21875 14.738281 -17.519531 14.8125 -17.8125 C 14.15625 -17.59375 13.425781 -17.253906 12.625 -16.796875 C 11.832031 -16.347656 10.851562 -15.675781 9.6875 -14.78125 C 8.519531 -13.894531 7.9375 -13.234375 7.9375 -12.796875 C 7.9375 -12.648438 8.148438 -12.578125 8.578125 -12.578125 C 9.003906 -12.578125 9.660156 -12.726562 10.546875 -13.03125 C 11.441406 -13.332031 12.066406 -13.484375 12.421875 -13.484375 C 12.773438 -13.484375 13.007812 -13.460938 13.125 -13.421875 C 13.363281 -13.296875 13.617188 -13.019531 13.890625 -12.59375 C 14.160156 -12.164062 14.296875 -11.828125 14.296875 -11.578125 C 14.296875 -11.335938 14.054688 -11.015625 13.578125 -10.609375 C 13.109375 -10.210938 12.570312 -9.910156 11.96875 -9.703125 C 11.375 -9.492188 10.976562 -9.332031 10.78125 -9.21875 C 6.9375 -7.070312 5.015625 -5.597656 5.015625 -4.796875 C 5.015625 -3.378906 6.226562 -2.671875 8.65625 -2.671875 C 10.195312 -2.671875 11.75 -3.160156 13.3125 -4.140625 C 14.644531 -4.984375 15.84375 -5.835938 16.90625 -6.703125 C 17.96875 -7.566406 18.640625 -8.097656 18.921875 -8.296875 C 19.203125 -8.492188 19.414062 -8.59375 19.5625 -8.59375 C 20.03125 -8.59375 20.265625 -8.0625 20.265625 -7 C 20.265625 -5.945312 20.203125 -5.253906 20.078125 -4.921875 C 19.953125 -4.585938 19.585938 -4.175781 18.984375 -3.6875 C 15.097656 -0.519531 11.414062 1.0625 7.9375 1.0625 C 6.082031 1.0625 4.601562 0.804688 3.5 0.296875 C 1.457031 -0.628906 0.4375 -2.046875 0.4375 -3.953125 C 0.4375 -6.460938 2.171875 -8.363281 5.640625 -9.65625 C 4.953125 -9.96875 4.507812 -10.363281 4.3125 -10.84375 C 4.113281 -11.320312 4.015625 -12.09375 4.015625 -13.15625 C 4.015625 -14.226562 4.507812 -15.359375 5.5 -16.546875 C 6.488281 -17.734375 7.703125 -18.710938 9.140625 -19.484375 C 12.335938 -21.210938 15.191406 -22.078125 17.703125 -22.078125 C 18.304688 -22.078125 18.914062 -21.929688 19.53125 -21.640625 C 20.15625 -21.347656 20.46875 -20.9375 20.46875 -20.40625 Z M 20.46875 -20.40625 "/></g></g></g><g fill="#00b2a9" fill-opacity="1"><g transform="translate(103.676526, 47.881907)"><g><path d="M 15.9375 -4.203125 C 15.9375 -3.398438 16.476562 -3 17.5625 -3 C 18.144531 -3 18.878906 -3.289062 19.765625 -3.875 C 20.648438 -4.457031 21.445312 -5.09375 22.15625 -5.78125 C 24.039062 -7.65625 25.113281 -8.59375 25.375 -8.59375 C 25.84375 -8.59375 26.078125 -7.910156 26.078125 -6.546875 C 26.078125 -5.179688 25.648438 -4.242188 24.796875 -3.734375 C 22.203125 -1.390625 20.191406 0.0351562 18.765625 0.546875 C 17.960938 0.816406 17.078125 0.941406 16.109375 0.921875 C 15.148438 0.910156 14.195312 0.492188 13.25 -0.328125 C 12.3125 -1.148438 11.84375 -2.144531 11.84375 -3.3125 C 11.84375 -4.488281 12.148438 -5.820312 12.765625 -7.3125 C 13.390625 -8.800781 14.023438 -10.078125 14.671875 -11.140625 C 15.316406 -12.203125 16.109375 -13.4375 17.046875 -14.84375 C 17.992188 -16.257812 18.492188 -17.140625 18.546875 -17.484375 L 18.5 -17.546875 C 17.894531 -17.492188 16.40625 -16.3125 14.03125 -14 C 11.664062 -11.6875 9.707031 -9.675781 8.15625 -7.96875 C 6.613281 -6.257812 4.769531 -3.976562 2.625 -1.125 C 2.019531 -0.34375 1.523438 0.046875 1.140625 0.046875 C 0.765625 0.046875 0.253906 -0.0703125 -0.390625 -0.3125 C -1.035156 -0.5625 -1.429688 -0.738281 -1.578125 -0.84375 C -1.722656 -0.957031 -1.796875 -1.125 -1.796875 -1.34375 C -1.796875 -1.5625 -1.734375 -1.828125 -1.609375 -2.140625 C -1.484375 -2.460938 -1.359375 -2.726562 -1.234375 -2.9375 C -1.117188 -3.144531 -0.925781 -3.46875 -0.65625 -3.90625 C -0.382812 -4.34375 0.15625 -5.265625 0.96875 -6.671875 C 1.78125 -8.078125 3.019531 -10.179688 4.6875 -12.984375 C 6.363281 -15.785156 7.363281 -17.476562 7.6875 -18.0625 C 8.382812 -19.257812 8.953125 -20.132812 9.390625 -20.6875 C 10.203125 -21.71875 11.582031 -22.234375 13.53125 -22.234375 C 13.96875 -22.234375 14.1875 -21.960938 14.1875 -21.421875 C 14.1875 -20.566406 13.394531 -18.957031 11.8125 -16.59375 L 10.671875 -14.875 C 13.816406 -18.363281 16.472656 -20.570312 18.640625 -21.5 C 19.691406 -21.957031 20.640625 -22.1875 21.484375 -22.1875 C 22.328125 -22.1875 23 -21.957031 23.5 -21.5 C 24 -21.039062 24.25 -20.535156 24.25 -19.984375 C 24.25 -19.429688 24.054688 -18.765625 23.671875 -17.984375 C 23.296875 -17.210938 22.910156 -16.519531 22.515625 -15.90625 C 22.128906 -15.300781 21.617188 -14.535156 20.984375 -13.609375 C 20.347656 -12.679688 20 -12.175781 19.9375 -12.09375 C 19.882812 -12.019531 19.742188 -11.800781 19.515625 -11.4375 C 19.296875 -11.082031 19.128906 -10.820312 19.015625 -10.65625 C 18.910156 -10.5 18.726562 -10.210938 18.46875 -9.796875 C 18.21875 -9.390625 18.015625 -9.050781 17.859375 -8.78125 C 17.703125 -8.507812 17.507812 -8.171875 17.28125 -7.765625 C 17.050781 -7.367188 16.867188 -7.023438 16.734375 -6.734375 C 16.597656 -6.441406 16.457031 -6.125 16.3125 -5.78125 C 16.0625 -5.144531 15.9375 -4.617188 15.9375 -4.203125 Z M 15.9375 -4.203125 "/></g></g></g><g fill="#00b2a9" fill-opacity="1"><g transform="translate(125.502944, 47.881907)"><g><path d="M 0.15625 -8.78125 L -0.046875 -9.546875 C -0.046875 -9.691406 0.0195312 -9.8125 0.15625 -9.90625 C 0.300781 -10.007812 0.488281 -10.21875 0.71875 -10.53125 C 0.945312 -10.84375 1.109375 -11.039062 1.203125 -11.125 C 1.304688 -11.21875 1.453125 -11.347656 1.640625 -11.515625 C 1.835938 -11.691406 2 -11.835938 2.125 -11.953125 C 2.488281 -12.253906 2.742188 -12.425781 2.890625 -12.46875 C 3.035156 -12.519531 3.289062 -12.601562 3.65625 -12.71875 C 4.78125 -13.082031 5.734375 -13.335938 6.515625 -13.484375 C 11.160156 -21.222656 14.882812 -27.28125 17.6875 -31.65625 C 20.5 -36.03125 22.097656 -38.445312 22.484375 -38.90625 C 22.878906 -39.375 23.578125 -39.789062 24.578125 -40.15625 C 25.578125 -40.519531 26.304688 -40.695312 26.765625 -40.6875 C 27.234375 -40.675781 27.46875 -40.472656 27.46875 -40.078125 C 27.46875 -39.910156 27.410156 -39.691406 27.296875 -39.421875 C 27.179688 -39.148438 26.1875 -37.539062 24.3125 -34.59375 C 17.382812 -23.738281 12.945312 -16.703125 11 -13.484375 L 11.671875 -13.234375 C 15.890625 -14.015625 18.085938 -14.40625 18.265625 -14.40625 C 18.441406 -14.40625 18.878906 -14.28125 19.578125 -14.03125 C 20.273438 -13.789062 20.734375 -13.648438 20.953125 -13.609375 C 21.367188 -13.535156 21.578125 -13.191406 21.578125 -12.578125 C 21.578125 -11.972656 21.382812 -11.632812 21 -11.5625 C 20.695312 -11.507812 19.957031 -11.332031 18.78125 -11.03125 C 17.613281 -10.726562 16.671875 -10.5 15.953125 -10.34375 C 16.921875 -9.195312 17.40625 -7.976562 17.40625 -6.6875 C 17.40625 -5.394531 16.832031 -3.6875 15.6875 -1.5625 C 14.539062 0.550781 13.078125 2.644531 11.296875 4.71875 C 9.515625 6.789062 7.644531 8.742188 5.6875 10.578125 C 3.726562 12.421875 1.847656 13.910156 0.046875 15.046875 C -1.742188 16.179688 -3.070312 16.75 -3.9375 16.75 C -4.800781 16.75 -5.570312 16.515625 -6.25 16.046875 C -6.9375 15.585938 -7.28125 14.898438 -7.28125 13.984375 C -7.28125 13.078125 -7.09375 12.019531 -6.71875 10.8125 C -6.351562 9.601562 -5.953125 8.492188 -5.515625 7.484375 C -5.078125 6.472656 -4.332031 5.023438 -3.28125 3.140625 C -2.144531 1.097656 -0.101562 -2.382812 2.84375 -7.3125 C 2.332031 -7.21875 1.9375 -7.171875 1.65625 -7.171875 C 1.382812 -7.171875 1.128906 -7.234375 0.890625 -7.359375 C 0.660156 -7.492188 0.5 -7.660156 0.40625 -7.859375 C 0.238281 -8.222656 0.15625 -8.53125 0.15625 -8.78125 Z M 7.84375 2.96875 C 9.195312 1.382812 10.335938 -0.269531 11.265625 -2 C 12.191406 -3.738281 12.65625 -5.15625 12.65625 -6.25 C 12.65625 -7.351562 12.117188 -8.328125 11.046875 -9.171875 L 8.015625 -8.484375 C 7.710938 -7.972656 7.238281 -7.164062 6.59375 -6.0625 C 5.945312 -4.96875 5.414062 -4.070312 5 -3.375 C 4.59375 -2.6875 4.070312 -1.796875 3.4375 -0.703125 C 2.800781 0.378906 2.269531 1.296875 1.84375 2.046875 C 1.414062 2.796875 0.941406 3.632812 0.421875 4.5625 C -0.0976562 5.5 -0.523438 6.300781 -0.859375 6.96875 C -1.191406 7.632812 -1.515625 8.296875 -1.828125 8.953125 C -2.429688 10.222656 -2.734375 11.046875 -2.734375 11.421875 C -2.734375 11.804688 -2.628906 12 -2.421875 12 C -2.054688 12 -1.304688 11.582031 -0.171875 10.75 C 0.960938 9.925781 2.242188 8.816406 3.671875 7.421875 C 5.097656 6.035156 6.488281 4.550781 7.84375 2.96875 Z M 7.84375 2.96875 "/></g></g></g><g fill="#00b2a9" fill-opacity="1"><g transform="translate(145.610537, 47.881907)"><g><path d="M 20.46875 -20.40625 C 20.46875 -19.207031 19.976562 -18.148438 19 -17.234375 C 18.03125 -16.328125 16.925781 -15.875 15.6875 -15.875 C 15.289062 -15.875 15.023438 -15.96875 14.890625 -16.15625 C 14.765625 -16.351562 14.703125 -16.601562 14.703125 -16.90625 C 14.703125 -17.21875 14.738281 -17.519531 14.8125 -17.8125 C 14.15625 -17.59375 13.425781 -17.253906 12.625 -16.796875 C 11.832031 -16.347656 10.851562 -15.675781 9.6875 -14.78125 C 8.519531 -13.894531 7.9375 -13.234375 7.9375 -12.796875 C 7.9375 -12.648438 8.148438 -12.578125 8.578125 -12.578125 C 9.003906 -12.578125 9.660156 -12.726562 10.546875 -13.03125 C 11.441406 -13.332031 12.066406 -13.484375 12.421875 -13.484375 C 12.773438 -13.484375 13.007812 -13.460938 13.125 -13.421875 C 13.363281 -13.296875 13.617188 -13.019531 13.890625 -12.59375 C 14.160156 -12.164062 14.296875 -11.828125 14.296875 -11.578125 C 14.296875 -11.335938 14.054688 -11.015625 13.578125 -10.609375 C 13.109375 -10.210938 12.570312 -9.910156 11.96875 -9.703125 C 11.375 -9.492188 10.976562 -9.332031 10.78125 -9.21875 C 6.9375 -7.070312 5.015625 -5.597656 5.015625 -4.796875 C 5.015625 -3.378906 6.226562 -2.671875 8.65625 -2.671875 C 10.195312 -2.671875 11.75 -3.160156 13.3125 -4.140625 C 14.644531 -4.984375 15.84375 -5.835938 16.90625 -6.703125 C 17.96875 -7.566406 18.640625 -8.097656 18.921875 -8.296875 C 19.203125 -8.492188 19.414062 -8.59375 19.5625 -8.59375 C 20.03125 -8.59375 20.265625 -8.0625 20.265625 -7 C 20.265625 -5.945312 20.203125 -5.253906 20.078125 -4.921875 C 19.953125 -4.585938 19.585938 -4.175781 18.984375 -3.6875 C 15.097656 -0.519531 11.414062 1.0625 7.9375 1.0625 C 6.082031 1.0625 4.601562 0.804688 3.5 0.296875 C 1.457031 -0.628906 0.4375 -2.046875 0.4375 -3.953125 C 0.4375 -6.460938 2.171875 -8.363281 5.640625 -9.65625 C 4.953125 -9.96875 4.507812 -10.363281 4.3125 -10.84375 C 4.113281 -11.320312 4.015625 -12.09375 4.015625 -13.15625 C 4.015625 -14.226562 4.507812 -15.359375 5.5 -16.546875 C 6.488281 -17.734375 7.703125 -18.710938 9.140625 -19.484375 C 12.335938 -21.210938 15.191406 -22.078125 17.703125 -22.078125 C 18.304688 -22.078125 18.914062 -21.929688 19.53125 -21.640625 C 20.15625 -21.347656 20.46875 -20.9375 20.46875 -20.40625 Z M 20.46875 -20.40625 "/></g></g></g><g fill="#00b2a9" fill-opacity="1"><g transform="translate(163.344502, 47.881907)"><g><path d="M 10.609375 -14.875 C 14.898438 -19.75 18.554688 -22.1875 21.578125 -22.1875 C 22.328125 -22.1875 22.941406 -21.960938 23.421875 -21.515625 C 23.898438 -21.066406 24.140625 -20.488281 24.140625 -19.78125 C 24.140625 -19.070312 23.632812 -17.882812 22.625 -16.21875 C 21.613281 -14.550781 20.679688 -13.144531 19.828125 -12 C 19.378906 -11.414062 18.867188 -11.125 18.296875 -11.125 C 17.722656 -11.125 17.273438 -11.332031 16.953125 -11.75 C 16.640625 -12.175781 16.484375 -12.671875 16.484375 -13.234375 C 16.484375 -14.484375 17.15625 -15.898438 18.5 -17.484375 L 18.4375 -17.546875 C 17.84375 -17.492188 16.359375 -16.3125 13.984375 -14 C 11.609375 -11.6875 9.585938 -9.613281 7.921875 -7.78125 C 6.253906 -5.957031 4.453125 -3.738281 2.515625 -1.125 C 1.953125 -0.34375 1.472656 0.046875 1.078125 0.046875 C 0.679688 0.046875 0.160156 -0.0703125 -0.484375 -0.3125 C -1.128906 -0.5625 -1.519531 -0.738281 -1.65625 -0.84375 C -1.789062 -0.957031 -1.859375 -1.140625 -1.859375 -1.390625 C -1.859375 -1.640625 -1.785156 -1.929688 -1.640625 -2.265625 C -1.492188 -2.609375 -1.222656 -3.085938 -0.828125 -3.703125 C -0.441406 -4.328125 0.144531 -5.328125 0.9375 -6.703125 C 1.726562 -8.085938 2.957031 -10.179688 4.625 -12.984375 C 6.300781 -15.785156 7.304688 -17.476562 7.640625 -18.0625 C 8.328125 -19.257812 8.890625 -20.132812 9.328125 -20.6875 C 10.148438 -21.71875 11.535156 -22.234375 13.484375 -22.234375 C 13.910156 -22.234375 14.125 -21.960938 14.125 -21.421875 C 14.125 -20.566406 13.335938 -18.957031 11.765625 -16.59375 Z M 10.609375 -14.875 "/></g></g></g><g fill="#00b2a9" fill-opacity="1"><g transform="translate(182.851868, 47.881907)"><g><path d="M 1.6875 0.15625 L 0.359375 0.109375 L -0.140625 0.109375 C -0.316406 0.0546875 -0.507812 -0.0507812 -0.71875 -0.21875 C -0.925781 -0.382812 -1.082031 -0.503906 -1.1875 -0.578125 C -1.300781 -0.648438 -1.359375 -0.78125 -1.359375 -0.96875 C -1.359375 -1.15625 -1.285156 -1.488281 -1.140625 -1.96875 C 2.398438 -9.769531 5.828125 -16.007812 9.140625 -20.6875 C 9.503906 -21.1875 10.085938 -21.566406 10.890625 -21.828125 C 11.703125 -22.097656 12.492188 -22.234375 13.265625 -22.234375 C 13.710938 -22.234375 13.9375 -21.878906 13.9375 -21.171875 C 13.9375 -20.972656 13.863281 -20.703125 13.71875 -20.359375 C 13.570312 -20.023438 13.207031 -19.472656 12.625 -18.703125 C 12.050781 -17.941406 11.363281 -17.070312 10.5625 -16.09375 C 9.757812 -15.113281 9.300781 -14.550781 9.1875 -14.40625 C 11.6875 -16.988281 13.941406 -18.910156 15.953125 -20.171875 C 17.960938 -21.441406 19.414062 -22.078125 20.3125 -22.078125 C 21.207031 -22.078125 21.894531 -21.816406 22.375 -21.296875 C 22.863281 -20.773438 23.109375 -20.21875 23.109375 -19.625 C 23.109375 -19.039062 23.066406 -18.550781 22.984375 -18.15625 C 22.898438 -17.757812 22.75 -17.347656 22.53125 -16.921875 C 22.3125 -16.492188 22.125 -16.128906 21.96875 -15.828125 C 21.820312 -15.535156 21.566406 -15.144531 21.203125 -14.65625 C 20.835938 -14.175781 20.585938 -13.84375 20.453125 -13.65625 C 20.316406 -13.476562 20.035156 -13.132812 19.609375 -12.625 C 19.179688 -12.125 18.945312 -11.84375 18.90625 -11.78125 C 19.414062 -12.289062 20.125 -13.046875 21.03125 -14.046875 C 21.945312 -15.046875 22.71875 -15.878906 23.34375 -16.546875 C 23.96875 -17.222656 24.753906 -17.984375 25.703125 -18.828125 C 26.648438 -19.679688 27.53125 -20.375 28.34375 -20.90625 C 30.3125 -22.132812 32.304688 -22.75 34.328125 -22.75 C 35.015625 -22.75 35.59375 -22.53125 36.0625 -22.09375 C 36.539062 -21.65625 36.78125 -21.128906 36.78125 -20.515625 C 36.78125 -19.910156 36.039062 -18.457031 34.5625 -16.15625 C 33.09375 -13.863281 31.625 -11.554688 30.15625 -9.234375 C 28.695312 -6.910156 27.96875 -5.453125 27.96875 -4.859375 C 27.96875 -4.015625 28.117188 -3.515625 28.421875 -3.359375 C 28.734375 -3.210938 29.109375 -3.15625 29.546875 -3.1875 C 29.984375 -3.226562 30.597656 -3.507812 31.390625 -4.03125 C 32.179688 -4.5625 32.882812 -5.109375 33.5 -5.671875 C 34.5 -6.578125 35.425781 -7.460938 36.28125 -8.328125 C 36.46875 -8.484375 36.671875 -8.5625 36.890625 -8.5625 C 37.234375 -8.5625 37.441406 -8.296875 37.515625 -7.765625 C 37.585938 -7.242188 37.625 -6.703125 37.625 -6.140625 C 37.625 -5.578125 37.566406 -5.1875 37.453125 -4.96875 C 36.929688 -3.945312 35.769531 -2.695312 33.96875 -1.21875 C 32.164062 0.25 30.4375 0.984375 28.78125 0.984375 C 28.582031 0.984375 28.4375 0.972656 28.34375 0.953125 C 26.46875 0.773438 25.171875 0.265625 24.453125 -0.578125 C 23.734375 -1.429688 23.375 -2.4375 23.375 -3.59375 C 23.375 -4.757812 23.769531 -6.171875 24.5625 -7.828125 C 25.351562 -9.484375 26.222656 -10.984375 27.171875 -12.328125 C 28.117188 -13.671875 28.988281 -14.882812 29.78125 -15.96875 C 30.570312 -17.050781 30.96875 -17.640625 30.96875 -17.734375 C 30.96875 -17.828125 30.894531 -17.875 30.75 -17.875 C 30.1875 -17.875 28.929688 -16.960938 26.984375 -15.140625 C 23.648438 -12.035156 20.773438 -9.035156 18.359375 -6.140625 C 17.722656 -5.378906 16.210938 -3.441406 13.828125 -0.328125 C 13.554688 0.0351562 13.125 0.21875 12.53125 0.21875 C 11.945312 0.21875 11.332031 0.101562 10.6875 -0.125 C 10.050781 -0.351562 9.734375 -0.648438 9.734375 -1.015625 C 9.734375 -1.191406 11.179688 -3.738281 14.078125 -8.65625 C 16.972656 -13.582031 18.421875 -16.265625 18.421875 -16.703125 C 18.421875 -17.148438 18.148438 -17.375 17.609375 -17.375 C 17.078125 -17.375 15.972656 -16.578125 14.296875 -14.984375 C 9.691406 -10.578125 6.125 -6.203125 3.59375 -1.859375 C 3.4375 -1.597656 3.117188 -1.195312 2.640625 -0.65625 C 2.171875 -0.113281 1.851562 0.15625 1.6875 0.15625 Z M 1.6875 0.15625 "/></g></g></g><g fill="#00b2a9" fill-opacity="1"><g transform="translate(216.846514, 47.881907)"><g><path d="M 20.46875 -20.40625 C 20.46875 -19.207031 19.976562 -18.148438 19 -17.234375 C 18.03125 -16.328125 16.925781 -15.875 15.6875 -15.875 C 15.289062 -15.875 15.023438 -15.96875 14.890625 -16.15625 C 14.765625 -16.351562 14.703125 -16.601562 14.703125 -16.90625 C 14.703125 -17.21875 14.738281 -17.519531 14.8125 -17.8125 C 14.15625 -17.59375 13.425781 -17.253906 12.625 -16.796875 C 11.832031 -16.347656 10.851562 -15.675781 9.6875 -14.78125 C 8.519531 -13.894531 7.9375 -13.234375 7.9375 -12.796875 C 7.9375 -12.648438 8.148438 -12.578125 8.578125 -12.578125 C 9.003906 -12.578125 9.660156 -12.726562 10.546875 -13.03125 C 11.441406 -13.332031 12.066406 -13.484375 12.421875 -13.484375 C 12.773438 -13.484375 13.007812 -13.460938 13.125 -13.421875 C 13.363281 -13.296875 13.617188 -13.019531 13.890625 -12.59375 C 14.160156 -12.164062 14.296875 -11.828125 14.296875 -11.578125 C 14.296875 -11.335938 14.054688 -11.015625 13.578125 -10.609375 C 13.109375 -10.210938 12.570312 -9.910156 11.96875 -9.703125 C 11.375 -9.492188 10.976562 -9.332031 10.78125 -9.21875 C 6.9375 -7.070312 5.015625 -5.597656 5.015625 -4.796875 C 5.015625 -3.378906 6.226562 -2.671875 8.65625 -2.671875 C 10.195312 -2.671875 11.75 -3.160156 13.3125 -4.140625 C 14.644531 -4.984375 15.84375 -5.835938 16.90625 -6.703125 C 17.96875 -7.566406 18.640625 -8.097656 18.921875 -8.296875 C 19.203125 -8.492188 19.414062 -8.59375 19.5625 -8.59375 C 20.03125 -8.59375 20.265625 -8.0625 20.265625 -7 C 20.265625 -5.945312 20.203125 -5.253906 20.078125 -4.921875 C 19.953125 -4.585938 19.585938 -4.175781 18.984375 -3.6875 C 15.097656 -0.519531 11.414062 1.0625 7.9375 1.0625 C 6.082031 1.0625 4.601562 0.804688 3.5 0.296875 C 1.457031 -0.628906 0.4375 -2.046875 0.4375 -3.953125 C 0.4375 -6.460938 2.171875 -8.363281 5.640625 -9.65625 C 4.953125 -9.96875 4.507812 -10.363281 4.3125 -10.84375 C 4.113281 -11.320312 4.015625 -12.09375 4.015625 -13.15625 C 4.015625 -14.226562 4.507812 -15.359375 5.5 -16.546875 C 6.488281 -17.734375 7.703125 -18.710938 9.140625 -19.484375 C 12.335938 -21.210938 15.191406 -22.078125 17.703125 -22.078125 C 18.304688 -22.078125 18.914062 -21.929688 19.53125 -21.640625 C 20.15625 -21.347656 20.46875 -20.9375 20.46875 -20.40625 Z M 20.46875 -20.40625 "/></g></g></g><g fill="#00b2a9" fill-opacity="1"><g transform="translate(234.580468, 47.881907)"><g><path d="M 10.609375 -14.875 C 14.898438 -19.75 18.554688 -22.1875 21.578125 -22.1875 C 22.328125 -22.1875 22.941406 -21.960938 23.421875 -21.515625 C 23.898438 -21.066406 24.140625 -20.488281 24.140625 -19.78125 C 24.140625 -19.070312 23.632812 -17.882812 22.625 -16.21875 C 21.613281 -14.550781 20.679688 -13.144531 19.828125 -12 C 19.378906 -11.414062 18.867188 -11.125 18.296875 -11.125 C 17.722656 -11.125 17.273438 -11.332031 16.953125 -11.75 C 16.640625 -12.175781 16.484375 -12.671875 16.484375 -13.234375 C 16.484375 -14.484375 17.15625 -15.898438 18.5 -17.484375 L 18.4375 -17.546875 C 17.84375 -17.492188 16.359375 -16.3125 13.984375 -14 C 11.609375 -11.6875 9.585938 -9.613281 7.921875 -7.78125 C 6.253906 -5.957031 4.453125 -3.738281 2.515625 -1.125 C 1.953125 -0.34375 1.472656 0.046875 1.078125 0.046875 C 0.679688 0.046875 0.160156 -0.0703125 -0.484375 -0.3125 C -1.128906 -0.5625 -1.519531 -0.738281 -1.65625 -0.84375 C -1.789062 -0.957031 -1.859375 -1.140625 -1.859375 -1.390625 C -1.859375 -1.640625 -1.785156 -1.929688 -1.640625 -2.265625 C -1.492188 -2.609375 -1.222656 -3.085938 -0.828125 -3.703125 C -0.441406 -4.328125 0.144531 -5.328125 0.9375 -6.703125 C 1.726562 -8.085938 2.957031 -10.179688 4.625 -12.984375 C 6.300781 -15.785156 7.304688 -17.476562 7.640625 -18.0625 C 8.328125 -19.257812 8.890625 -20.132812 9.328125 -20.6875 C 10.148438 -21.71875 11.535156 -22.234375 13.484375 -22.234375 C 13.910156 -22.234375 14.125 -21.960938 14.125 -21.421875 C 14.125 -20.566406 13.335938 -18.957031 11.765625 -16.59375 Z M 10.609375 -14.875 "/></g></g></g><g fill="#00b2a9" fill-opacity="1"><g transform="translate(254.087823, 47.881907)"><g><path d="M 15.03125 -6.140625 C 15.03125 -5.585938 14.976562 -5.195312 14.875 -4.96875 C 13.976562 -3.144531 12.554688 -1.671875 10.609375 -0.546875 C 8.660156 0.566406 6.96875 1.125 5.53125 1.125 C 4.101562 1.125 2.867188 0.644531 1.828125 -0.3125 C 0.785156 -1.28125 0.265625 -2.265625 0.265625 -3.265625 C 0.265625 -4.273438 0.765625 -5.734375 1.765625 -7.640625 C 2.773438 -9.546875 3.78125 -11.304688 4.78125 -12.921875 C 5.78125 -14.546875 6.28125 -15.425781 6.28125 -15.5625 C 6.28125 -15.695312 6.09375 -15.960938 5.71875 -16.359375 C 5.34375 -16.765625 5.15625 -17.0625 5.15625 -17.25 C 5.15625 -17.445312 5.53125 -17.945312 6.28125 -18.75 C 7.039062 -19.5625 7.960938 -20.363281 9.046875 -21.15625 C 10.128906 -21.945312 10.957031 -22.34375 11.53125 -22.34375 C 12.101562 -22.34375 12.613281 -22.085938 13.0625 -21.578125 C 13.519531 -21.066406 13.75 -20.601562 13.75 -20.1875 C 13.75 -19.769531 11.582031 -15.832031 7.25 -8.375 C 7.195312 -8.269531 7.046875 -8.03125 6.796875 -7.65625 C 6.554688 -7.28125 6.367188 -6.96875 6.234375 -6.71875 C 6.097656 -6.476562 5.9375 -6.1875 5.75 -5.84375 C 5.394531 -5.113281 5.21875 -4.503906 5.21875 -4.015625 C 5.21875 -3.390625 5.632812 -3.078125 6.46875 -3.078125 C 7.300781 -3.078125 8.164062 -3.363281 9.0625 -3.9375 C 9.96875 -4.507812 10.75 -5.144531 11.40625 -5.84375 C 13.113281 -7.675781 14.085938 -8.59375 14.328125 -8.59375 C 14.796875 -8.59375 15.03125 -7.773438 15.03125 -6.140625 Z M 21.03125 -30.09375 C 20.539062 -29.625 19.175781 -28.757812 16.9375 -27.5 C 14.707031 -26.25 13.320312 -25.625 12.78125 -25.625 C 12.25 -25.625 11.984375 -25.859375 11.984375 -26.328125 C 11.984375 -26.492188 12.023438 -26.664062 12.109375 -26.84375 C 12.515625 -27.894531 13.113281 -28.851562 13.90625 -29.71875 C 14.695312 -30.582031 15.5625 -31.394531 16.5 -32.15625 C 17.445312 -32.925781 18.273438 -33.5625 18.984375 -34.0625 C 19.691406 -34.5625 20.179688 -34.9375 20.453125 -35.1875 C 20.734375 -35.445312 20.925781 -35.738281 21.03125 -36.0625 C 21.15625 -36.394531 21.398438 -36.5625 21.765625 -36.5625 C 22.128906 -36.5625 22.476562 -36.242188 22.8125 -35.609375 C 23.15625 -34.984375 23.328125 -34.390625 23.328125 -33.828125 C 23.328125 -32.335938 22.5625 -31.09375 21.03125 -30.09375 Z M 21.03125 -30.09375 "/></g></g></g><g fill="#00b2a9" fill-opacity="1"><g transform="translate(265.410294, 47.881907)"><g><path d="M 22.515625 -20.734375 C 23.890625 -20.734375 24.578125 -20.257812 24.578125 -19.3125 C 24.578125 -18.800781 24.457031 -18.425781 24.21875 -18.1875 C 23.988281 -17.957031 23.484375 -17.171875 22.703125 -15.828125 C 21.929688 -14.492188 21.078125 -12.785156 20.140625 -10.703125 C 19.210938 -8.617188 18.609375 -6.84375 18.328125 -5.375 C 18.273438 -5.195312 18.25 -4.941406 18.25 -4.609375 C 18.25 -3.609375 18.519531 -3.109375 19.0625 -3.109375 C 19.613281 -3.109375 20.257812 -3.367188 21 -3.890625 C 21.75 -4.410156 22.414062 -4.960938 23 -5.546875 C 23.582031 -6.140625 24.148438 -6.742188 24.703125 -7.359375 C 25.253906 -7.984375 25.582031 -8.335938 25.6875 -8.421875 C 25.800781 -8.515625 25.96875 -8.5625 26.1875 -8.5625 C 26.53125 -8.5625 26.738281 -8.296875 26.8125 -7.765625 C 26.882812 -7.242188 26.921875 -6.703125 26.921875 -6.140625 C 26.921875 -5.578125 26.867188 -5.1875 26.765625 -4.96875 C 26.234375 -3.925781 25.070312 -2.675781 23.28125 -1.21875 C 21.488281 0.226562 19.859375 0.953125 18.390625 0.953125 C 16.929688 0.953125 15.851562 0.507812 15.15625 -0.375 C 14.46875 -1.269531 14.125 -2.257812 14.125 -3.34375 C 14.125 -4.425781 14.304688 -5.375 14.671875 -6.1875 C 13.160156 -4.226562 11.425781 -2.566406 9.46875 -1.203125 C 7.519531 0.160156 5.925781 0.84375 4.6875 0.84375 C 3.457031 0.84375 2.453125 0.472656 1.671875 -0.265625 C 0.660156 -1.203125 0.15625 -2.492188 0.15625 -4.140625 C 0.15625 -5.785156 0.523438 -7.4375 1.265625 -9.09375 C 2.003906 -10.757812 2.972656 -12.28125 4.171875 -13.65625 C 5.367188 -15.03125 6.6875 -16.28125 8.125 -17.40625 C 11.144531 -19.769531 13.929688 -20.953125 16.484375 -20.953125 C 17.460938 -20.953125 18.257812 -20.785156 18.875 -20.453125 C 19.5 -20.128906 19.890625 -19.722656 20.046875 -19.234375 C 20.484375 -19.890625 20.851562 -20.300781 21.15625 -20.46875 C 21.457031 -20.644531 21.910156 -20.734375 22.515625 -20.734375 Z M 18.875 -17.703125 C 15.769531 -17.703125 12.550781 -15.972656 9.21875 -12.515625 C 8.039062 -11.285156 6.953125 -9.804688 5.953125 -8.078125 C 4.960938 -6.347656 4.46875 -5.164062 4.46875 -4.53125 C 4.46875 -3.894531 4.648438 -3.578125 5.015625 -3.578125 C 5.523438 -3.578125 6.941406 -4.582031 9.265625 -6.59375 C 11.597656 -8.601562 13.148438 -10.078125 13.921875 -11.015625 C 14.753906 -12.078125 16.40625 -14.304688 18.875 -17.703125 Z M 18.875 -17.703125 "/></g></g></g></svg>