<svg xmlns="http://www.w3.org/2000/svg" xmlns:xlink="http://www.w3.org/1999/xlink" width="400" zoomAndPan="magnify" viewBox="0 0 300 67.499998" height="90" preserveAspectRatio="xMidYMid meet" version="1.0"><defs><g/><clipPath id="id1"><path d="M 1.101562 0 L 298.894531 0 L 298.894531 67.003906 L 1.101562 67.003906 Z M 1.101562 0 " clip-rule="nonzero"/></clipPath></defs><g clip-path="url(#id1)"><path fill="#ffffff" d="M 1.101562 0 L 298.898438 0 L 298.898438 74.449219 L 1.101562 74.449219 Z M 1.101562 0 " fill-opacity="1" fill-rule="nonzero"/><path fill="#ffffff" d="M 1.101562 0 L 298.898438 0 L 298.898438 67.003906 L 1.101562 67.003906 Z M 1.101562 0 " fill-opacity="1" fill-rule="nonzero"/><path fill="#ffffff" d="M 1.101562 0 L 298.898438 0 L 298.898438 67.003906 L 1.101562 67.003906 Z M 1.101562 0 " fill-opacity="1" fill-rule="nonzero"/></g><g fill="#00b2a9" fill-opacity="1"><g transform="translate(1.789268, 48.619465)"><g><path d="M 36.15625 -12.671875 C 36.570312 -12.671875 36.78125 -12.128906 36.78125 -11.046875 C 36.78125 -9.960938 36.707031 -9.238281 36.5625 -8.875 C 36.101562 -7.695312 35.035156 -6.378906 33.359375 -4.921875 C 31.691406 -3.460938 29.859375 -2.222656 27.859375 -1.203125 C 25.867188 -0.179688 24.234375 0.328125 22.953125 0.328125 C 22.335938 0.328125 21.816406 0.09375 21.390625 -0.375 C 20.972656 -0.851562 20.765625 -1.476562 20.765625 -2.25 C 20.765625 -3.601562 21.546875 -5.675781 23.109375 -8.46875 C 24.671875 -11.269531 26.554688 -14.191406 28.765625 -17.234375 C 25.085938 -12.960938 22.476562 -10.078125 20.9375 -8.578125 C 19.40625 -7.078125 18.035156 -5.796875 16.828125 -4.734375 C 15.617188 -3.671875 14.535156 -2.816406 13.578125 -2.171875 C 11.285156 -0.660156 9.460938 0.09375 8.109375 0.09375 C 6.765625 0.09375 5.8125 -0.273438 5.25 -1.015625 C 4.6875 -1.753906 4.40625 -2.578125 4.40625 -3.484375 C 4.40625 -6.128906 5.953125 -9.847656 9.046875 -14.640625 C 12.140625 -19.429688 14.984375 -23.347656 17.578125 -26.390625 C 15.378906 -24.453125 13.863281 -23.484375 13.03125 -23.484375 C 12.195312 -23.484375 11.570312 -23.738281 11.15625 -24.25 C 10.75 -24.757812 10.546875 -25.335938 10.546875 -25.984375 C 10.546875 -26.640625 10.847656 -27.253906 11.453125 -27.828125 C 12.066406 -28.398438 12.515625 -28.6875 12.796875 -28.6875 C 13.085938 -28.6875 13.234375 -28.660156 13.234375 -28.609375 C 13.234375 -28.566406 13.117188 -28.398438 12.890625 -28.109375 C 12.660156 -27.828125 12.546875 -27.632812 12.546875 -27.53125 C 12.546875 -27.425781 12.644531 -27.375 12.84375 -27.375 C 13.4375 -27.375 14.734375 -27.976562 16.734375 -29.1875 C 18.734375 -30.394531 20.445312 -31.570312 21.875 -32.71875 C 22.25 -33.039062 22.6875 -33.203125 23.1875 -33.203125 C 23.6875 -33.203125 24.164062 -33.078125 24.625 -32.828125 C 24.65625 -32.898438 24.785156 -32.882812 25.015625 -32.78125 C 25.242188 -32.675781 25.472656 -32.507812 25.703125 -32.28125 C 25.929688 -32.050781 26.046875 -31.835938 26.046875 -31.640625 C 26.046875 -31.441406 25.984375 -31.257812 25.859375 -31.09375 C 19.503906 -22.863281 15.507812 -17.503906 13.875 -15.015625 C 10.550781 -9.953125 8.890625 -6.664062 8.890625 -5.15625 C 8.890625 -4.625 9.113281 -4.359375 9.5625 -4.359375 C 10.019531 -4.359375 11.296875 -5.210938 13.390625 -6.921875 C 19.140625 -11.597656 27.191406 -19.851562 37.546875 -31.6875 C 37.960938 -32.15625 38.351562 -32.375 38.71875 -32.34375 L 38.921875 -32.34375 C 38.984375 -32.34375 39.15625 -32.367188 39.4375 -32.421875 C 39.726562 -32.484375 40.191406 -32.515625 40.828125 -32.515625 C 42.359375 -32.515625 43.125 -32.226562 43.125 -31.65625 C 43.125 -31.414062 42.894531 -30.988281 42.4375 -30.375 C 41.988281 -29.757812 41.050781 -28.441406 39.625 -26.421875 C 38.207031 -24.410156 36.441406 -21.851562 34.328125 -18.75 C 32.210938 -15.644531 30.382812 -12.796875 28.84375 -10.203125 C 27.3125 -7.609375 26.546875 -5.957031 26.546875 -5.25 C 26.546875 -5.238281 26.570312 -5.234375 26.625 -5.234375 C 26.675781 -5.234375 26.914062 -5.335938 27.34375 -5.546875 C 28.664062 -6.234375 30.207031 -7.328125 31.96875 -8.828125 C 33.738281 -10.328125 34.851562 -11.34375 35.3125 -11.875 C 35.78125 -12.40625 36.0625 -12.671875 36.15625 -12.671875 Z M 36.15625 -12.671875 "/></g></g></g><g fill="#00b2a9" fill-opacity="1"><g transform="translate(36.533995, 48.619465)"><g><path d="M 13.390625 -3.53125 C 13.390625 -2.851562 13.847656 -2.515625 14.765625 -2.515625 C 15.253906 -2.515625 15.867188 -2.757812 16.609375 -3.25 C 17.347656 -3.738281 18.015625 -4.273438 18.609375 -4.859375 C 20.203125 -6.429688 21.109375 -7.21875 21.328125 -7.21875 C 21.722656 -7.21875 21.921875 -6.644531 21.921875 -5.5 C 21.921875 -4.351562 21.5625 -3.566406 20.84375 -3.140625 C 18.65625 -1.171875 16.960938 0.0234375 15.765625 0.453125 C 15.097656 0.679688 14.359375 0.785156 13.546875 0.765625 C 12.734375 0.753906 11.929688 0.40625 11.140625 -0.28125 C 10.347656 -0.96875 9.953125 -1.800781 9.953125 -2.78125 C 9.953125 -3.769531 10.210938 -4.890625 10.734375 -6.140625 C 11.253906 -7.398438 11.785156 -8.472656 12.328125 -9.359375 C 12.867188 -10.253906 13.535156 -11.296875 14.328125 -12.484375 C 15.117188 -13.671875 15.539062 -14.410156 15.59375 -14.703125 L 15.546875 -14.734375 C 15.035156 -14.691406 13.78125 -13.695312 11.78125 -11.75 C 9.789062 -9.8125 8.144531 -8.125 6.84375 -6.6875 C 5.550781 -5.257812 4.003906 -3.34375 2.203125 -0.9375 C 1.691406 -0.28125 1.273438 0.046875 0.953125 0.046875 C 0.640625 0.046875 0.210938 -0.0546875 -0.328125 -0.265625 C -0.867188 -0.472656 -1.203125 -0.617188 -1.328125 -0.703125 C -1.453125 -0.796875 -1.515625 -0.9375 -1.515625 -1.125 C -1.515625 -1.3125 -1.457031 -1.535156 -1.34375 -1.796875 C -1.238281 -2.066406 -1.132812 -2.289062 -1.03125 -2.46875 C -0.9375 -2.644531 -0.773438 -2.914062 -0.546875 -3.28125 C -0.316406 -3.644531 0.132812 -4.414062 0.8125 -5.59375 C 1.488281 -6.78125 2.53125 -8.550781 3.9375 -10.90625 C 5.34375 -13.257812 6.1875 -14.679688 6.46875 -15.171875 C 7.050781 -16.179688 7.523438 -16.914062 7.890625 -17.375 C 8.578125 -18.25 9.738281 -18.6875 11.375 -18.6875 C 11.738281 -18.6875 11.921875 -18.457031 11.921875 -18 C 11.921875 -17.28125 11.253906 -15.925781 9.921875 -13.9375 L 8.96875 -12.5 C 11.613281 -15.425781 13.84375 -17.28125 15.65625 -18.0625 C 16.539062 -18.445312 17.335938 -18.640625 18.046875 -18.640625 C 18.765625 -18.640625 19.332031 -18.445312 19.75 -18.0625 C 20.164062 -17.6875 20.375 -17.265625 20.375 -16.796875 C 20.375 -16.328125 20.210938 -15.765625 19.890625 -15.109375 C 19.578125 -14.460938 19.253906 -13.882812 18.921875 -13.375 C 18.597656 -12.863281 18.164062 -12.21875 17.625 -11.4375 C 17.09375 -10.65625 16.800781 -10.226562 16.75 -10.15625 C 16.707031 -10.09375 16.59375 -9.910156 16.40625 -9.609375 C 16.21875 -9.316406 16.078125 -9.101562 15.984375 -8.96875 C 15.890625 -8.832031 15.734375 -8.585938 15.515625 -8.234375 C 15.304688 -7.890625 15.132812 -7.601562 15 -7.375 C 14.875 -7.144531 14.710938 -6.863281 14.515625 -6.53125 C 14.328125 -6.195312 14.175781 -5.90625 14.0625 -5.65625 C 13.945312 -5.414062 13.828125 -5.148438 13.703125 -4.859375 C 13.492188 -4.328125 13.390625 -3.882812 13.390625 -3.53125 Z M 13.390625 -3.53125 "/></g></g></g><g fill="#00b2a9" fill-opacity="1"><g transform="translate(54.868944, 48.619465)"><g><path d="M 16.34375 -25.171875 C 16.34375 -24.296875 15.9375 -23.421875 15.125 -22.546875 C 14.320312 -21.671875 13.476562 -21.234375 12.59375 -21.234375 C 11.71875 -21.234375 11.28125 -21.691406 11.28125 -22.609375 C 11.28125 -23.523438 11.664062 -24.398438 12.4375 -25.234375 C 13.207031 -26.066406 14.0625 -26.484375 15 -26.484375 C 15.40625 -26.484375 15.726562 -26.367188 15.96875 -26.140625 C 16.21875 -25.910156 16.34375 -25.585938 16.34375 -25.171875 Z M 12.625 -5.15625 C 12.625 -4.695312 12.582031 -4.367188 12.5 -4.171875 C 11.75 -2.640625 10.554688 -1.40625 8.921875 -0.46875 C 7.285156 0.46875 5.863281 0.9375 4.65625 0.9375 C 3.445312 0.9375 2.40625 0.535156 1.53125 -0.265625 C 0.664062 -1.078125 0.234375 -1.90625 0.234375 -2.75 C 0.234375 -3.59375 0.648438 -4.816406 1.484375 -6.421875 C 2.328125 -8.023438 3.164062 -9.503906 4 -10.859375 C 4.84375 -12.222656 5.265625 -12.960938 5.265625 -13.078125 C 5.265625 -13.191406 5.109375 -13.414062 4.796875 -13.75 C 4.484375 -14.09375 4.328125 -14.34375 4.328125 -14.5 C 4.328125 -14.65625 4.644531 -15.070312 5.28125 -15.75 C 5.914062 -16.4375 6.6875 -17.113281 7.59375 -17.78125 C 8.507812 -18.445312 9.207031 -18.78125 9.6875 -18.78125 C 10.164062 -18.78125 10.597656 -18.566406 10.984375 -18.140625 C 11.367188 -17.710938 11.5625 -17.320312 11.5625 -16.96875 C 11.5625 -16.613281 9.738281 -13.300781 6.09375 -7.03125 C 6.050781 -6.945312 5.925781 -6.742188 5.71875 -6.421875 C 5.507812 -6.109375 5.347656 -5.847656 5.234375 -5.640625 C 5.117188 -5.441406 4.988281 -5.195312 4.84375 -4.90625 C 4.53125 -4.289062 4.375 -3.78125 4.375 -3.375 C 4.375 -2.851562 4.722656 -2.59375 5.421875 -2.59375 C 6.128906 -2.59375 6.863281 -2.832031 7.625 -3.3125 C 8.382812 -3.789062 9.035156 -4.320312 9.578125 -4.90625 C 11.015625 -6.445312 11.832031 -7.21875 12.03125 -7.21875 C 12.425781 -7.21875 12.625 -6.53125 12.625 -5.15625 Z M 12.625 -5.15625 "/></g></g></g><g fill="#00b2a9" fill-opacity="1"><g transform="translate(64.380204, 48.619465)"><g><path d="M 30.21875 -34.359375 C 30.507812 -34.359375 30.738281 -34.265625 30.90625 -34.078125 C 31.070312 -33.898438 31.15625 -33.71875 31.15625 -33.53125 C 31.15625 -33.34375 31.003906 -32.988281 30.703125 -32.46875 C 30.410156 -31.957031 29.726562 -30.84375 28.65625 -29.125 C 27.582031 -27.40625 26.75 -26.054688 26.15625 -25.078125 C 22.6875 -19.441406 19.96875 -14.671875 18 -10.765625 C 16.03125 -6.867188 15.046875 -4.519531 15.046875 -3.71875 L 15.046875 -3.53125 C 15.046875 -2.90625 15.273438 -2.59375 15.734375 -2.59375 C 16.191406 -2.59375 16.742188 -2.804688 17.390625 -3.234375 C 18.035156 -3.660156 18.601562 -4.117188 19.09375 -4.609375 C 19.582031 -5.097656 20.078125 -5.601562 20.578125 -6.125 C 21.078125 -6.65625 21.378906 -6.96875 21.484375 -7.0625 C 21.585938 -7.15625 21.722656 -7.203125 21.890625 -7.203125 C 22.148438 -7.203125 22.316406 -7.035156 22.390625 -6.703125 C 22.472656 -6.378906 22.515625 -5.921875 22.515625 -5.328125 C 22.515625 -4.742188 22.46875 -4.359375 22.375 -4.171875 C 21.9375 -3.316406 20.960938 -2.273438 19.453125 -1.046875 C 17.941406 0.179688 16.515625 0.796875 15.171875 0.796875 C 12.878906 0.796875 11.734375 -0.171875 11.734375 -2.109375 C 11.734375 -3.316406 12.191406 -4.898438 13.109375 -6.859375 C 11.867188 -5.253906 10.609375 -3.882812 9.328125 -2.75 C 6.941406 -0.675781 4.875 0.359375 3.125 0.359375 C 2.144531 0.359375 1.421875 0.015625 0.953125 -0.671875 C 0.484375 -1.359375 0.25 -2.347656 0.25 -3.640625 C 0.25 -4.929688 0.753906 -6.476562 1.765625 -8.28125 C 2.773438 -10.082031 4.03125 -11.703125 5.53125 -13.140625 C 7.039062 -14.585938 8.710938 -15.796875 10.546875 -16.765625 C 12.378906 -17.734375 14.066406 -18.21875 15.609375 -18.21875 C 16.097656 -18.21875 16.671875 -17.921875 17.328125 -17.328125 C 17.773438 -18.035156 18.59375 -19.441406 19.78125 -21.546875 C 23.53125 -27.859375 26.007812 -31.710938 27.21875 -33.109375 C 27.851562 -33.941406 28.851562 -34.359375 30.21875 -34.359375 Z M 15.9375 -15.171875 C 13.726562 -14.679688 11.675781 -13.65625 9.78125 -12.09375 C 7.894531 -10.539062 6.476562 -8.910156 5.53125 -7.203125 C 4.582031 -5.503906 4.109375 -4.398438 4.109375 -3.890625 C 4.109375 -3.390625 4.210938 -3.140625 4.421875 -3.140625 C 5.335938 -3.140625 7.609375 -5.1875 11.234375 -9.28125 C 13.035156 -11.300781 14.601562 -13.265625 15.9375 -15.171875 Z M 15.9375 -15.171875 "/></g></g></g><g fill="#00b2a9" fill-opacity="1"><g transform="translate(83.700661, 48.619465)"><g><path d="M 18.921875 -17.421875 C 20.078125 -17.421875 20.65625 -17.023438 20.65625 -16.234375 C 20.65625 -15.804688 20.554688 -15.492188 20.359375 -15.296875 C 20.160156 -15.097656 19.734375 -14.4375 19.078125 -13.3125 C 18.429688 -12.1875 17.710938 -10.75 16.921875 -9 C 16.140625 -7.25 15.632812 -5.753906 15.40625 -4.515625 C 15.363281 -4.359375 15.34375 -4.144531 15.34375 -3.875 C 15.34375 -3.03125 15.570312 -2.609375 16.03125 -2.609375 C 16.488281 -2.609375 17.03125 -2.828125 17.65625 -3.265625 C 18.28125 -3.703125 18.835938 -4.164062 19.328125 -4.65625 C 19.816406 -5.15625 20.289062 -5.664062 20.75 -6.1875 C 21.21875 -6.707031 21.5 -7.003906 21.59375 -7.078125 C 21.6875 -7.160156 21.828125 -7.203125 22.015625 -7.203125 C 22.296875 -7.203125 22.46875 -6.976562 22.53125 -6.53125 C 22.59375 -6.09375 22.625 -5.632812 22.625 -5.15625 C 22.625 -4.6875 22.578125 -4.359375 22.484375 -4.171875 C 22.046875 -3.296875 21.070312 -2.25 19.5625 -1.03125 C 18.0625 0.1875 16.695312 0.796875 15.46875 0.796875 C 14.238281 0.796875 13.332031 0.425781 12.75 -0.3125 C 12.164062 -1.0625 11.875 -1.890625 11.875 -2.796875 C 11.875 -3.710938 12.023438 -4.515625 12.328125 -5.203125 C 11.066406 -3.554688 9.613281 -2.160156 7.96875 -1.015625 C 6.320312 0.128906 4.976562 0.703125 3.9375 0.703125 C 2.90625 0.703125 2.0625 0.390625 1.40625 -0.234375 C 0.5625 -1.015625 0.140625 -2.09375 0.140625 -3.46875 C 0.140625 -4.851562 0.445312 -6.242188 1.0625 -7.640625 C 1.6875 -9.046875 2.5 -10.320312 3.5 -11.46875 C 4.507812 -12.625 5.617188 -13.675781 6.828125 -14.625 C 9.367188 -16.613281 11.707031 -17.609375 13.84375 -17.609375 C 14.664062 -17.609375 15.335938 -17.46875 15.859375 -17.1875 C 16.378906 -16.914062 16.707031 -16.570312 16.84375 -16.15625 C 17.21875 -16.707031 17.53125 -17.054688 17.78125 -17.203125 C 18.03125 -17.347656 18.410156 -17.421875 18.921875 -17.421875 Z M 15.859375 -14.875 C 13.242188 -14.875 10.539062 -13.421875 7.75 -10.515625 C 6.757812 -9.484375 5.847656 -8.238281 5.015625 -6.78125 C 4.179688 -5.332031 3.765625 -4.335938 3.765625 -3.796875 C 3.765625 -3.265625 3.914062 -3 4.21875 -3 C 4.644531 -3 5.835938 -3.84375 7.796875 -5.53125 C 9.753906 -7.21875 11.050781 -8.460938 11.6875 -9.265625 C 12.394531 -10.148438 13.785156 -12.019531 15.859375 -14.875 Z M 15.859375 -14.875 "/></g></g></g><g fill="#00b2a9" fill-opacity="1"><g transform="translate(102.814845, 48.619465)"><g><path d="M 30.21875 -34.359375 C 30.507812 -34.359375 30.738281 -34.265625 30.90625 -34.078125 C 31.070312 -33.898438 31.15625 -33.71875 31.15625 -33.53125 C 31.15625 -33.34375 31.003906 -32.988281 30.703125 -32.46875 C 30.410156 -31.957031 29.726562 -30.84375 28.65625 -29.125 C 27.582031 -27.40625 26.75 -26.054688 26.15625 -25.078125 C 22.6875 -19.441406 19.96875 -14.671875 18 -10.765625 C 16.03125 -6.867188 15.046875 -4.519531 15.046875 -3.71875 L 15.046875 -3.53125 C 15.046875 -2.90625 15.273438 -2.59375 15.734375 -2.59375 C 16.191406 -2.59375 16.742188 -2.804688 17.390625 -3.234375 C 18.035156 -3.660156 18.601562 -4.117188 19.09375 -4.609375 C 19.582031 -5.097656 20.078125 -5.601562 20.578125 -6.125 C 21.078125 -6.65625 21.378906 -6.96875 21.484375 -7.0625 C 21.585938 -7.15625 21.722656 -7.203125 21.890625 -7.203125 C 22.148438 -7.203125 22.316406 -7.035156 22.390625 -6.703125 C 22.472656 -6.378906 22.515625 -5.921875 22.515625 -5.328125 C 22.515625 -4.742188 22.46875 -4.359375 22.375 -4.171875 C 21.9375 -3.316406 20.960938 -2.273438 19.453125 -1.046875 C 17.941406 0.179688 16.515625 0.796875 15.171875 0.796875 C 12.878906 0.796875 11.734375 -0.171875 11.734375 -2.109375 C 11.734375 -3.316406 12.191406 -4.898438 13.109375 -6.859375 C 11.867188 -5.253906 10.609375 -3.882812 9.328125 -2.75 C 6.941406 -0.675781 4.875 0.359375 3.125 0.359375 C 2.144531 0.359375 1.421875 0.015625 0.953125 -0.671875 C 0.484375 -1.359375 0.25 -2.347656 0.25 -3.640625 C 0.25 -4.929688 0.753906 -6.476562 1.765625 -8.28125 C 2.773438 -10.082031 4.03125 -11.703125 5.53125 -13.140625 C 7.039062 -14.585938 8.710938 -15.796875 10.546875 -16.765625 C 12.378906 -17.734375 14.066406 -18.21875 15.609375 -18.21875 C 16.097656 -18.21875 16.671875 -17.921875 17.328125 -17.328125 C 17.773438 -18.035156 18.59375 -19.441406 19.78125 -21.546875 C 23.53125 -27.859375 26.007812 -31.710938 27.21875 -33.109375 C 27.851562 -33.941406 28.851562 -34.359375 30.21875 -34.359375 Z M 15.9375 -15.171875 C 13.726562 -14.679688 11.675781 -13.65625 9.78125 -12.09375 C 7.894531 -10.539062 6.476562 -8.910156 5.53125 -7.203125 C 4.582031 -5.503906 4.109375 -4.398438 4.109375 -3.890625 C 4.109375 -3.390625 4.210938 -3.140625 4.421875 -3.140625 C 5.335938 -3.140625 7.609375 -5.1875 11.234375 -9.28125 C 13.035156 -11.300781 14.601562 -13.265625 15.9375 -15.171875 Z M 15.9375 -15.171875 "/></g></g></g><g fill="#00b2a9" fill-opacity="1"><g transform="translate(122.135302, 48.619465)"><g/></g></g><g fill="#00b2a9" fill-opacity="1"><g transform="translate(131.875749, 48.619465)"><g><path d="M 30.21875 -34.359375 C 30.507812 -34.359375 30.738281 -34.265625 30.90625 -34.078125 C 31.070312 -33.898438 31.15625 -33.71875 31.15625 -33.53125 C 31.15625 -33.34375 31.003906 -32.988281 30.703125 -32.46875 C 30.410156 -31.957031 29.726562 -30.84375 28.65625 -29.125 C 27.582031 -27.40625 26.75 -26.054688 26.15625 -25.078125 C 22.6875 -19.441406 19.96875 -14.671875 18 -10.765625 C 16.03125 -6.867188 15.046875 -4.519531 15.046875 -3.71875 L 15.046875 -3.53125 C 15.046875 -2.90625 15.273438 -2.59375 15.734375 -2.59375 C 16.191406 -2.59375 16.742188 -2.804688 17.390625 -3.234375 C 18.035156 -3.660156 18.601562 -4.117188 19.09375 -4.609375 C 19.582031 -5.097656 20.078125 -5.601562 20.578125 -6.125 C 21.078125 -6.65625 21.378906 -6.96875 21.484375 -7.0625 C 21.585938 -7.15625 21.722656 -7.203125 21.890625 -7.203125 C 22.148438 -7.203125 22.316406 -7.035156 22.390625 -6.703125 C 22.472656 -6.378906 22.515625 -5.921875 22.515625 -5.328125 C 22.515625 -4.742188 22.46875 -4.359375 22.375 -4.171875 C 21.9375 -3.316406 20.960938 -2.273438 19.453125 -1.046875 C 17.941406 0.179688 16.515625 0.796875 15.171875 0.796875 C 12.878906 0.796875 11.734375 -0.171875 11.734375 -2.109375 C 11.734375 -3.316406 12.191406 -4.898438 13.109375 -6.859375 C 11.867188 -5.253906 10.609375 -3.882812 9.328125 -2.75 C 6.941406 -0.675781 4.875 0.359375 3.125 0.359375 C 2.144531 0.359375 1.421875 0.015625 0.953125 -0.671875 C 0.484375 -1.359375 0.25 -2.347656 0.25 -3.640625 C 0.25 -4.929688 0.753906 -6.476562 1.765625 -8.28125 C 2.773438 -10.082031 4.03125 -11.703125 5.53125 -13.140625 C 7.039062 -14.585938 8.710938 -15.796875 10.546875 -16.765625 C 12.378906 -17.734375 14.066406 -18.21875 15.609375 -18.21875 C 16.097656 -18.21875 16.671875 -17.921875 17.328125 -17.328125 C 17.773438 -18.035156 18.59375 -19.441406 19.78125 -21.546875 C 23.53125 -27.859375 26.007812 -31.710938 27.21875 -33.109375 C 27.851562 -33.941406 28.851562 -34.359375 30.21875 -34.359375 Z M 15.9375 -15.171875 C 13.726562 -14.679688 11.675781 -13.65625 9.78125 -12.09375 C 7.894531 -10.539062 6.476562 -8.910156 5.53125 -7.203125 C 4.582031 -5.503906 4.109375 -4.398438 4.109375 -3.890625 C 4.109375 -3.390625 4.210938 -3.140625 4.421875 -3.140625 C 5.335938 -3.140625 7.609375 -5.1875 11.234375 -9.28125 C 13.035156 -11.300781 14.601562 -13.265625 15.9375 -15.171875 Z M 15.9375 -15.171875 "/></g></g></g><g fill="#00b2a9" fill-opacity="1"><g transform="translate(151.196207, 48.619465)"><g><path d="M 17.1875 -17.15625 C 17.1875 -16.144531 16.773438 -15.253906 15.953125 -14.484375 C 15.140625 -13.722656 14.21875 -13.34375 13.1875 -13.34375 C 12.84375 -13.34375 12.617188 -13.421875 12.515625 -13.578125 C 12.410156 -13.742188 12.359375 -13.957031 12.359375 -14.21875 C 12.359375 -14.476562 12.390625 -14.726562 12.453125 -14.96875 C 11.898438 -14.789062 11.285156 -14.507812 10.609375 -14.125 C 9.941406 -13.738281 9.117188 -13.171875 8.140625 -12.421875 C 7.160156 -11.671875 6.671875 -11.113281 6.671875 -10.75 C 6.671875 -10.625 6.847656 -10.5625 7.203125 -10.5625 C 7.566406 -10.5625 8.125 -10.6875 8.875 -10.9375 C 9.625 -11.195312 10.144531 -11.328125 10.4375 -11.328125 C 10.738281 -11.328125 10.9375 -11.3125 11.03125 -11.28125 C 11.226562 -11.175781 11.441406 -10.941406 11.671875 -10.578125 C 11.898438 -10.222656 12.015625 -9.941406 12.015625 -9.734375 C 12.015625 -9.523438 11.816406 -9.25 11.421875 -8.90625 C 11.023438 -8.570312 10.570312 -8.316406 10.0625 -8.140625 C 9.5625 -7.972656 9.226562 -7.84375 9.0625 -7.75 C 5.832031 -5.945312 4.21875 -4.707031 4.21875 -4.03125 C 4.21875 -2.84375 5.234375 -2.25 7.265625 -2.25 C 8.566406 -2.25 9.875 -2.660156 11.1875 -3.484375 C 12.300781 -4.191406 13.304688 -4.90625 14.203125 -5.625 C 15.097656 -6.351562 15.660156 -6.800781 15.890625 -6.96875 C 16.128906 -7.132812 16.3125 -7.21875 16.4375 -7.21875 C 16.832031 -7.21875 17.03125 -6.773438 17.03125 -5.890625 C 17.03125 -5.003906 16.976562 -4.421875 16.875 -4.140625 C 16.769531 -3.859375 16.460938 -3.507812 15.953125 -3.09375 C 12.679688 -0.4375 9.585938 0.890625 6.671875 0.890625 C 5.109375 0.890625 3.863281 0.675781 2.9375 0.25 C 1.21875 -0.53125 0.359375 -1.722656 0.359375 -3.328125 C 0.359375 -5.429688 1.820312 -7.023438 4.75 -8.109375 C 4.164062 -8.367188 3.789062 -8.703125 3.625 -9.109375 C 3.457031 -9.515625 3.375 -10.164062 3.375 -11.0625 C 3.375 -11.957031 3.789062 -12.90625 4.625 -13.90625 C 5.457031 -14.90625 6.476562 -15.726562 7.6875 -16.375 C 10.375 -17.820312 12.769531 -18.546875 14.875 -18.546875 C 15.382812 -18.546875 15.894531 -18.421875 16.40625 -18.171875 C 16.925781 -17.929688 17.1875 -17.59375 17.1875 -17.15625 Z M 17.1875 -17.15625 "/></g></g></g><g fill="#00b2a9" fill-opacity="1"><g transform="translate(166.093353, 48.619465)"><g/></g></g><g fill="#00b2a9" fill-opacity="1"><g transform="translate(175.8338, 48.619465)"><g><path d="M 21.59375 -6.765625 C 21.695312 -6.054688 21.75 -5.5 21.75 -5.09375 C 21.75 -4.695312 21.675781 -4.347656 21.53125 -4.046875 C 21.394531 -3.742188 21.078125 -3.320312 20.578125 -2.78125 C 20.078125 -2.238281 19.484375 -1.691406 18.796875 -1.140625 C 17.117188 0.179688 15.398438 0.84375 13.640625 0.84375 C 11.117188 0.84375 9.859375 -0.269531 9.859375 -2.5 C 9.859375 -4.4375 11.546875 -8.300781 14.921875 -14.09375 C 15.046875 -14.3125 15.128906 -14.46875 15.171875 -14.5625 C 13.992188 -13.726562 11.742188 -11.472656 8.421875 -7.796875 C 5.097656 -4.128906 2.882812 -1.53125 1.78125 0 C 1.695312 0.132812 1.46875 0.285156 1.09375 0.453125 C 0.726562 0.617188 0.441406 0.703125 0.234375 0.703125 C 0.0351562 0.703125 -0.179688 0.640625 -0.421875 0.515625 C -0.660156 0.390625 -0.8125 0.328125 -0.875 0.328125 C -1.070312 0.328125 -1.171875 0.257812 -1.171875 0.125 C -1.171875 0 -0.898438 -0.695312 -0.359375 -1.96875 C 0.179688 -3.25 0.894531 -4.835938 1.78125 -6.734375 C 4.21875 -11.960938 7.832031 -18.765625 12.625 -27.140625 C 14.3125 -30.078125 15.628906 -32.15625 16.578125 -33.375 C 17.242188 -34.25 18.375 -34.6875 19.96875 -34.6875 C 20.300781 -34.6875 20.488281 -34.585938 20.53125 -34.390625 C 20.582031 -34.191406 20.609375 -33.976562 20.609375 -33.75 C 20.609375 -33.519531 20.5625 -33.289062 20.46875 -33.0625 L 18.015625 -29.234375 C 13.160156 -21.648438 9.5 -15.367188 7.03125 -10.390625 C 9.414062 -13.285156 11.734375 -15.523438 13.984375 -17.109375 C 15.378906 -18.097656 16.421875 -18.59375 17.109375 -18.59375 C 17.804688 -18.59375 18.4375 -18.476562 19 -18.25 C 19.570312 -18.03125 19.859375 -17.503906 19.859375 -16.671875 C 19.859375 -16.359375 19.359375 -15.226562 18.359375 -13.28125 C 15.378906 -7.40625 13.890625 -4.140625 13.890625 -3.484375 C 13.890625 -2.835938 14.160156 -2.515625 14.703125 -2.515625 C 15.472656 -2.515625 16.671875 -3.273438 18.296875 -4.796875 C 19.515625 -5.941406 20.285156 -6.675781 20.609375 -7 C 20.796875 -7.132812 20.960938 -7.203125 21.109375 -7.203125 C 21.398438 -7.203125 21.5625 -7.054688 21.59375 -6.765625 Z M 21.59375 -6.765625 "/></g></g></g><g fill="#00b2a9" fill-opacity="1"><g transform="translate(194.283347, 48.619465)"><g><path d="M 17.1875 -17.15625 C 17.1875 -16.144531 16.773438 -15.253906 15.953125 -14.484375 C 15.140625 -13.722656 14.21875 -13.34375 13.1875 -13.34375 C 12.84375 -13.34375 12.617188 -13.421875 12.515625 -13.578125 C 12.410156 -13.742188 12.359375 -13.957031 12.359375 -14.21875 C 12.359375 -14.476562 12.390625 -14.726562 12.453125 -14.96875 C 11.898438 -14.789062 11.285156 -14.507812 10.609375 -14.125 C 9.941406 -13.738281 9.117188 -13.171875 8.140625 -12.421875 C 7.160156 -11.671875 6.671875 -11.113281 6.671875 -10.75 C 6.671875 -10.625 6.847656 -10.5625 7.203125 -10.5625 C 7.566406 -10.5625 8.125 -10.6875 8.875 -10.9375 C 9.625 -11.195312 10.144531 -11.328125 10.4375 -11.328125 C 10.738281 -11.328125 10.9375 -11.3125 11.03125 -11.28125 C 11.226562 -11.175781 11.441406 -10.941406 11.671875 -10.578125 C 11.898438 -10.222656 12.015625 -9.941406 12.015625 -9.734375 C 12.015625 -9.523438 11.816406 -9.25 11.421875 -8.90625 C 11.023438 -8.570312 10.570312 -8.316406 10.0625 -8.140625 C 9.5625 -7.972656 9.226562 -7.84375 9.0625 -7.75 C 5.832031 -5.945312 4.21875 -4.707031 4.21875 -4.03125 C 4.21875 -2.84375 5.234375 -2.25 7.265625 -2.25 C 8.566406 -2.25 9.875 -2.660156 11.1875 -3.484375 C 12.300781 -4.191406 13.304688 -4.90625 14.203125 -5.625 C 15.097656 -6.351562 15.660156 -6.800781 15.890625 -6.96875 C 16.128906 -7.132812 16.3125 -7.21875 16.4375 -7.21875 C 16.832031 -7.21875 17.03125 -6.773438 17.03125 -5.890625 C 17.03125 -5.003906 16.976562 -4.421875 16.875 -4.140625 C 16.769531 -3.859375 16.460938 -3.507812 15.953125 -3.09375 C 12.679688 -0.4375 9.585938 0.890625 6.671875 0.890625 C 5.109375 0.890625 3.863281 0.675781 2.9375 0.25 C 1.21875 -0.53125 0.359375 -1.722656 0.359375 -3.328125 C 0.359375 -5.429688 1.820312 -7.023438 4.75 -8.109375 C 4.164062 -8.367188 3.789062 -8.703125 3.625 -9.109375 C 3.457031 -9.515625 3.375 -10.164062 3.375 -11.0625 C 3.375 -11.957031 3.789062 -12.90625 4.625 -13.90625 C 5.457031 -14.90625 6.476562 -15.726562 7.6875 -16.375 C 10.375 -17.820312 12.769531 -18.546875 14.875 -18.546875 C 15.382812 -18.546875 15.894531 -18.421875 16.40625 -18.171875 C 16.925781 -17.929688 17.1875 -17.59375 17.1875 -17.15625 Z M 17.1875 -17.15625 "/></g></g></g><g fill="#00b2a9" fill-opacity="1"><g transform="translate(209.180481, 48.619465)"><g><path d="M 8.921875 -12.5 C 12.523438 -16.59375 15.597656 -18.640625 18.140625 -18.640625 C 18.765625 -18.640625 19.28125 -18.453125 19.6875 -18.078125 C 20.09375 -17.703125 20.296875 -17.21875 20.296875 -16.625 C 20.296875 -16.03125 19.867188 -15.03125 19.015625 -13.625 C 18.171875 -12.226562 17.390625 -11.050781 16.671875 -10.09375 C 16.285156 -9.601562 15.851562 -9.359375 15.375 -9.359375 C 14.894531 -9.359375 14.519531 -9.53125 14.25 -9.875 C 13.976562 -10.226562 13.84375 -10.644531 13.84375 -11.125 C 13.84375 -12.175781 14.410156 -13.367188 15.546875 -14.703125 L 15.5 -14.734375 C 14.988281 -14.691406 13.738281 -13.695312 11.75 -11.75 C 9.757812 -9.8125 8.0625 -8.070312 6.65625 -6.53125 C 5.257812 -5 3.742188 -3.132812 2.109375 -0.9375 C 1.640625 -0.28125 1.238281 0.046875 0.90625 0.046875 C 0.570312 0.046875 0.132812 -0.0546875 -0.40625 -0.265625 C -0.945312 -0.472656 -1.273438 -0.617188 -1.390625 -0.703125 C -1.503906 -0.796875 -1.5625 -0.945312 -1.5625 -1.15625 C -1.5625 -1.375 -1.5 -1.625 -1.375 -1.90625 C -1.25 -2.195312 -1.019531 -2.597656 -0.6875 -3.109375 C -0.363281 -3.628906 0.125 -4.46875 0.78125 -5.625 C 1.445312 -6.789062 2.484375 -8.550781 3.890625 -10.90625 C 5.296875 -13.257812 6.140625 -14.679688 6.421875 -15.171875 C 7.003906 -16.179688 7.476562 -16.914062 7.84375 -17.375 C 8.53125 -18.25 9.691406 -18.6875 11.328125 -18.6875 C 11.691406 -18.6875 11.875 -18.457031 11.875 -18 C 11.875 -17.28125 11.207031 -15.925781 9.875 -13.9375 Z M 8.921875 -12.5 "/></g></g></g><g fill="#00b2a9" fill-opacity="1"><g transform="translate(225.567335, 48.619465)"><g><path d="M 16.34375 -25.171875 C 16.34375 -24.296875 15.9375 -23.421875 15.125 -22.546875 C 14.320312 -21.671875 13.476562 -21.234375 12.59375 -21.234375 C 11.71875 -21.234375 11.28125 -21.691406 11.28125 -22.609375 C 11.28125 -23.523438 11.664062 -24.398438 12.4375 -25.234375 C 13.207031 -26.066406 14.0625 -26.484375 15 -26.484375 C 15.40625 -26.484375 15.726562 -26.367188 15.96875 -26.140625 C 16.21875 -25.910156 16.34375 -25.585938 16.34375 -25.171875 Z M 12.625 -5.15625 C 12.625 -4.695312 12.582031 -4.367188 12.5 -4.171875 C 11.75 -2.640625 10.554688 -1.40625 8.921875 -0.46875 C 7.285156 0.46875 5.863281 0.9375 4.65625 0.9375 C 3.445312 0.9375 2.40625 0.535156 1.53125 -0.265625 C 0.664062 -1.078125 0.234375 -1.90625 0.234375 -2.75 C 0.234375 -3.59375 0.648438 -4.816406 1.484375 -6.421875 C 2.328125 -8.023438 3.164062 -9.503906 4 -10.859375 C 4.84375 -12.222656 5.265625 -12.960938 5.265625 -13.078125 C 5.265625 -13.191406 5.109375 -13.414062 4.796875 -13.75 C 4.484375 -14.09375 4.328125 -14.34375 4.328125 -14.5 C 4.328125 -14.65625 4.644531 -15.070312 5.28125 -15.75 C 5.914062 -16.4375 6.6875 -17.113281 7.59375 -17.78125 C 8.507812 -18.445312 9.207031 -18.78125 9.6875 -18.78125 C 10.164062 -18.78125 10.597656 -18.566406 10.984375 -18.140625 C 11.367188 -17.710938 11.5625 -17.320312 11.5625 -16.96875 C 11.5625 -16.613281 9.738281 -13.300781 6.09375 -7.03125 C 6.050781 -6.945312 5.925781 -6.742188 5.71875 -6.421875 C 5.507812 -6.109375 5.347656 -5.847656 5.234375 -5.640625 C 5.117188 -5.441406 4.988281 -5.195312 4.84375 -4.90625 C 4.53125 -4.289062 4.375 -3.78125 4.375 -3.375 C 4.375 -2.851562 4.722656 -2.59375 5.421875 -2.59375 C 6.128906 -2.59375 6.863281 -2.832031 7.625 -3.3125 C 8.382812 -3.789062 9.035156 -4.320312 9.578125 -4.90625 C 11.015625 -6.445312 11.832031 -7.21875 12.03125 -7.21875 C 12.425781 -7.21875 12.625 -6.53125 12.625 -5.15625 Z M 12.625 -5.15625 "/></g></g></g><g fill="#00b2a9" fill-opacity="1"><g transform="translate(235.078607, 48.619465)"><g><path d="M 30.21875 -34.359375 C 30.507812 -34.359375 30.738281 -34.265625 30.90625 -34.078125 C 31.070312 -33.898438 31.15625 -33.71875 31.15625 -33.53125 C 31.15625 -33.34375 31.003906 -32.988281 30.703125 -32.46875 C 30.410156 -31.957031 29.726562 -30.84375 28.65625 -29.125 C 27.582031 -27.40625 26.75 -26.054688 26.15625 -25.078125 C 22.6875 -19.441406 19.96875 -14.671875 18 -10.765625 C 16.03125 -6.867188 15.046875 -4.519531 15.046875 -3.71875 L 15.046875 -3.53125 C 15.046875 -2.90625 15.273438 -2.59375 15.734375 -2.59375 C 16.191406 -2.59375 16.742188 -2.804688 17.390625 -3.234375 C 18.035156 -3.660156 18.601562 -4.117188 19.09375 -4.609375 C 19.582031 -5.097656 20.078125 -5.601562 20.578125 -6.125 C 21.078125 -6.65625 21.378906 -6.96875 21.484375 -7.0625 C 21.585938 -7.15625 21.722656 -7.203125 21.890625 -7.203125 C 22.148438 -7.203125 22.316406 -7.035156 22.390625 -6.703125 C 22.472656 -6.378906 22.515625 -5.921875 22.515625 -5.328125 C 22.515625 -4.742188 22.46875 -4.359375 22.375 -4.171875 C 21.9375 -3.316406 20.960938 -2.273438 19.453125 -1.046875 C 17.941406 0.179688 16.515625 0.796875 15.171875 0.796875 C 12.878906 0.796875 11.734375 -0.171875 11.734375 -2.109375 C 11.734375 -3.316406 12.191406 -4.898438 13.109375 -6.859375 C 11.867188 -5.253906 10.609375 -3.882812 9.328125 -2.75 C 6.941406 -0.675781 4.875 0.359375 3.125 0.359375 C 2.144531 0.359375 1.421875 0.015625 0.953125 -0.671875 C 0.484375 -1.359375 0.25 -2.347656 0.25 -3.640625 C 0.25 -4.929688 0.753906 -6.476562 1.765625 -8.28125 C 2.773438 -10.082031 4.03125 -11.703125 5.53125 -13.140625 C 7.039062 -14.585938 8.710938 -15.796875 10.546875 -16.765625 C 12.378906 -17.734375 14.066406 -18.21875 15.609375 -18.21875 C 16.097656 -18.21875 16.671875 -17.921875 17.328125 -17.328125 C 17.773438 -18.035156 18.59375 -19.441406 19.78125 -21.546875 C 23.53125 -27.859375 26.007812 -31.710938 27.21875 -33.109375 C 27.851562 -33.941406 28.851562 -34.359375 30.21875 -34.359375 Z M 15.9375 -15.171875 C 13.726562 -14.679688 11.675781 -13.65625 9.78125 -12.09375 C 7.894531 -10.539062 6.476562 -8.910156 5.53125 -7.203125 C 4.582031 -5.503906 4.109375 -4.398438 4.109375 -3.890625 C 4.109375 -3.390625 4.210938 -3.140625 4.421875 -3.140625 C 5.335938 -3.140625 7.609375 -5.1875 11.234375 -9.28125 C 13.035156 -11.300781 14.601562 -13.265625 15.9375 -15.171875 Z M 15.9375 -15.171875 "/></g></g></g><g fill="#00b2a9" fill-opacity="1"><g transform="translate(254.399053, 48.619465)"><g><path d="M 18.921875 -17.421875 C 20.078125 -17.421875 20.65625 -17.023438 20.65625 -16.234375 C 20.65625 -15.804688 20.554688 -15.492188 20.359375 -15.296875 C 20.160156 -15.097656 19.734375 -14.4375 19.078125 -13.3125 C 18.429688 -12.1875 17.710938 -10.75 16.921875 -9 C 16.140625 -7.25 15.632812 -5.753906 15.40625 -4.515625 C 15.363281 -4.359375 15.34375 -4.144531 15.34375 -3.875 C 15.34375 -3.03125 15.570312 -2.609375 16.03125 -2.609375 C 16.488281 -2.609375 17.03125 -2.828125 17.65625 -3.265625 C 18.28125 -3.703125 18.835938 -4.164062 19.328125 -4.65625 C 19.816406 -5.15625 20.289062 -5.664062 20.75 -6.1875 C 21.21875 -6.707031 21.5 -7.003906 21.59375 -7.078125 C 21.6875 -7.160156 21.828125 -7.203125 22.015625 -7.203125 C 22.296875 -7.203125 22.46875 -6.976562 22.53125 -6.53125 C 22.59375 -6.09375 22.625 -5.632812 22.625 -5.15625 C 22.625 -4.6875 22.578125 -4.359375 22.484375 -4.171875 C 22.046875 -3.296875 21.070312 -2.25 19.5625 -1.03125 C 18.0625 0.1875 16.695312 0.796875 15.46875 0.796875 C 14.238281 0.796875 13.332031 0.425781 12.75 -0.3125 C 12.164062 -1.0625 11.875 -1.890625 11.875 -2.796875 C 11.875 -3.710938 12.023438 -4.515625 12.328125 -5.203125 C 11.066406 -3.554688 9.613281 -2.160156 7.96875 -1.015625 C 6.320312 0.128906 4.976562 0.703125 3.9375 0.703125 C 2.90625 0.703125 2.0625 0.390625 1.40625 -0.234375 C 0.5625 -1.015625 0.140625 -2.09375 0.140625 -3.46875 C 0.140625 -4.851562 0.445312 -6.242188 1.0625 -7.640625 C 1.6875 -9.046875 2.5 -10.320312 3.5 -11.46875 C 4.507812 -12.625 5.617188 -13.675781 6.828125 -14.625 C 9.367188 -16.613281 11.707031 -17.609375 13.84375 -17.609375 C 14.664062 -17.609375 15.335938 -17.46875 15.859375 -17.1875 C 16.378906 -16.914062 16.707031 -16.570312 16.84375 -16.15625 C 17.21875 -16.707031 17.53125 -17.054688 17.78125 -17.203125 C 18.03125 -17.347656 18.410156 -17.421875 18.921875 -17.421875 Z M 15.859375 -14.875 C 13.242188 -14.875 10.539062 -13.421875 7.75 -10.515625 C 6.757812 -9.484375 5.847656 -8.238281 5.015625 -6.78125 C 4.179688 -5.332031 3.765625 -4.335938 3.765625 -3.796875 C 3.765625 -3.265625 3.914062 -3 4.21875 -3 C 4.644531 -3 5.835938 -3.84375 7.796875 -5.53125 C 9.753906 -7.21875 11.050781 -8.460938 11.6875 -9.265625 C 12.394531 -10.148438 13.785156 -12.019531 15.859375 -14.875 Z M 15.859375 -14.875 "/></g></g></g><g fill="#00b2a9" fill-opacity="1"><g transform="translate(273.513248, 48.619465)"><g><path d="M 3.9375 -4.578125 L 3.921875 -4.21875 C 3.921875 -3.832031 4.066406 -3.5 4.359375 -3.21875 C 4.648438 -2.945312 4.914062 -2.8125 5.15625 -2.8125 C 6.988281 -2.8125 8.613281 -3.085938 10.03125 -3.640625 C 11.445312 -4.191406 12.15625 -4.742188 12.15625 -5.296875 C 12.15625 -5.554688 11.894531 -5.78125 11.375 -5.96875 C 10.863281 -6.164062 10 -6.40625 8.78125 -6.6875 C 7.570312 -6.96875 6.691406 -7.1875 6.140625 -7.34375 C 5.585938 -7.507812 5.148438 -7.660156 4.828125 -7.796875 C 4.515625 -7.929688 4.191406 -8.125 3.859375 -8.375 C 3.140625 -8.875 2.78125 -9.625 2.78125 -10.625 C 2.78125 -11.625 3.148438 -12.613281 3.890625 -13.59375 C 4.628906 -14.582031 5.554688 -15.425781 6.671875 -16.125 C 7.785156 -16.832031 8.984375 -17.457031 10.265625 -18 C 12.804688 -19.050781 14.941406 -19.578125 16.671875 -19.578125 C 18.367188 -19.578125 19.414062 -19.210938 19.8125 -18.484375 C 19.925781 -18.222656 19.984375 -17.929688 19.984375 -17.609375 L 19.984375 -17.453125 C 19.984375 -16.640625 19.8125 -16.003906 19.46875 -15.546875 C 19.125 -15.085938 18.582031 -14.671875 17.84375 -14.296875 C 17.101562 -13.929688 16.515625 -13.75 16.078125 -13.75 C 15.640625 -13.75 15.363281 -13.78125 15.25 -13.84375 C 15.132812 -13.90625 15.039062 -13.984375 14.96875 -14.078125 C 14.894531 -14.179688 14.800781 -14.253906 14.6875 -14.296875 C 14.570312 -14.347656 14.515625 -14.460938 14.515625 -14.640625 C 14.515625 -14.828125 14.585938 -15.015625 14.734375 -15.203125 C 14.890625 -15.398438 15 -15.601562 15.0625 -15.8125 C 14.050781 -15.769531 12.992188 -15.535156 11.890625 -15.109375 C 10.796875 -14.691406 9.851562 -14.222656 9.0625 -13.703125 C 8.28125 -13.191406 7.628906 -12.695312 7.109375 -12.21875 C 6.585938 -11.75 6.328125 -11.398438 6.328125 -11.171875 C 6.328125 -10.953125 6.675781 -10.773438 7.375 -10.640625 C 10.539062 -10.015625 12.617188 -9.472656 13.609375 -9.015625 C 14.609375 -8.554688 15.296875 -8.035156 15.671875 -7.453125 C 16.054688 -6.867188 16.25 -6.34375 16.25 -5.875 C 16.25 -4.894531 15.859375 -3.96875 15.078125 -3.09375 C 14.304688 -2.21875 13.347656 -1.507812 12.203125 -0.96875 C 9.734375 0.238281 7.585938 0.84375 5.765625 0.84375 C 3.941406 0.84375 2.679688 0.5625 1.984375 0 C 1.285156 -0.550781 0.9375 -1.207031 0.9375 -1.96875 C 0.9375 -2.738281 1.128906 -3.445312 1.515625 -4.09375 C 1.910156 -4.738281 2.410156 -5.0625 3.015625 -5.0625 C 3.628906 -5.0625 3.9375 -4.898438 3.9375 -4.578125 Z M 3.9375 -4.578125 "/></g></g></g></svg>